<svg xmlns="http://www.w3.org/2000/svg" viewBox="0 0 227.38 78.71"><defs><style>.cls-1{fill:#ed6d33;}.cls-2{fill:#e24241;}.cls-3{fill:#f6f2d0;}</style></defs><g id="레이어_2" data-name="레이어 2"><g id="레이어_1-2" data-name="레이어 1"><path class="cls-1" d="M5.3,60.62a3.14,3.14,0,0,0,1.17,1.53,3.15,3.15,0,0,0,1.69.43A3.37,3.37,0,0,0,11,61.43q.92-1.16.92-6.19V37.88a2.49,2.49,0,0,1,2.82-2.81,2.45,2.45,0,0,1,2.77,2.77V56a28.11,28.11,0,0,1-.3,4.84,8.18,8.18,0,0,1-1.11,2.84,8,8,0,0,1-3.35,2.86,10.66,10.66,0,0,1-4.63,1A9.27,9.27,0,0,1,3.28,66.4a7.3,7.3,0,0,1-3-3.65Q-.67,60.07,1.68,59,4.19,58,5.3,60.62Z"/><path class="cls-1" d="M37.89,46.11c0-1.59.92-2.38,2.77-2.38s2.73.78,2.73,2.34V65c0,1.59-.91,2.39-2.73,2.39s-2.77-.8-2.77-2.39a10.48,10.48,0,0,1-7.08,2.39A11.68,11.68,0,0,1,19,55.5a12,12,0,0,1,.87-4.57,10.81,10.81,0,0,1,2.5-3.71,11.25,11.25,0,0,1,3.88-2.71,11.41,11.41,0,0,1,4.35-.87A10.53,10.53,0,0,1,37.89,46.11ZM24.54,55.5a7.1,7.1,0,0,0,2,5.12,6.53,6.53,0,0,0,4.91,2,6.24,6.24,0,0,0,4.73-2,7,7,0,0,0,1.92-4.95,7.36,7.36,0,0,0-1.9-5.16,6.22,6.22,0,0,0-4.84-2.09,6.5,6.5,0,0,0-4.82,2A7,7,0,0,0,24.54,55.5Z"/><path class="cls-1" d="M63.69,47.31a6.67,6.67,0,0,1,2.56-2.52,8.7,8.7,0,0,1,4.35-1A9.56,9.56,0,0,1,76.9,46a7.75,7.75,0,0,1,2.62,6.31V64.58c0,1.85-.91,2.78-2.73,2.78S74,66.43,74,64.58V53.11q0-2.78-1.17-3.75a4,4,0,0,0-2.67-1,3.63,3.63,0,0,0-2.92,1.37Q66.08,51.11,66,54.9v9.73a2.4,2.4,0,0,1-2.69,2.73,2.41,2.41,0,0,1-2.73-2.73V54.77q0-4-1.15-5.18a3.79,3.79,0,0,0-2.86-1.22,3.33,3.33,0,0,0-2.94,1.52q-1,1.52-1,5.22v9.47c0,1.85-.9,2.78-2.69,2.78a2.45,2.45,0,0,1-2.77-2.78V45.9c0-1.45.86-2.17,2.6-2.17s2.64.72,2.64,2.17V46a5.86,5.86,0,0,1,4.74-2.18A9.39,9.39,0,0,1,61,44.6,5.25,5.25,0,0,1,63.69,47.31Z"/><path class="cls-1" d="M81.78,55.58a12,12,0,0,1,.83-4.47,10.21,10.21,0,0,1,2.5-3.67,12.13,12.13,0,0,1,4-2.88,11.44,11.44,0,0,1,4.67-1,12.62,12.62,0,0,1,4.78.89,12.3,12.3,0,0,1,4,2.65,11.87,11.87,0,0,1,2.67,3.81,11.22,11.22,0,0,1,.92,4.5,12.19,12.19,0,0,1-.86,4.46,10.9,10.9,0,0,1-2.47,3.82,12.24,12.24,0,0,1-4,2.88,12.05,12.05,0,0,1-4.84,1,12.49,12.49,0,0,1-4.76-.92A11.77,11.77,0,0,1,85.28,64a12.39,12.39,0,0,1-2.58-3.9A11.56,11.56,0,0,1,81.78,55.58Zm5.54,0a7,7,0,0,0,1.9,5.08,6.81,6.81,0,0,0,9.56,0,7,7,0,0,0,1.89-5.08,7,7,0,0,0-1.89-5.07,6.41,6.41,0,0,0-4.8-2,6.3,6.3,0,0,0-4.76,2A7,7,0,0,0,87.32,55.54Z"/><path class="cls-1" d="M123.11,64.58V54.26c0-2.3-.45-3.82-1.36-4.56a4.81,4.81,0,0,0-3.12-1.11,4.63,4.63,0,0,0-3.09,1.51q-1.61,1.51-1.6,6.08v8.4c0,1.85-.91,2.78-2.73,2.78a2.45,2.45,0,0,1-2.77-2.78V45.94c0-1.47.89-2.21,2.69-2.21s2.68.74,2.68,2.21v.22a6.62,6.62,0,0,1,5.38-2.35,10.12,10.12,0,0,1,6.65,2.33q2.82,2.32,2.82,7V64.58c0,1.85-.91,2.78-2.73,2.78S123.11,66.43,123.11,64.58Z"/><path class="cls-1" d="M136.63,68.93a6.47,6.47,0,0,0,2.5,2,8.51,8.51,0,0,0,3.26.55c2.45,0,4.27-.54,5.48-1.62a4.8,4.8,0,0,0,1.82-3.63V64.75a11.49,11.49,0,0,1-15.47-.81,11.38,11.38,0,0,1-3.47-8.48,12,12,0,0,1,.87-4.57,10.37,10.37,0,0,1,2.5-3.67A11.17,11.17,0,0,1,138,44.47a11.36,11.36,0,0,1,4.4-.87,11.51,11.51,0,0,1,7.25,2.56v-.09q0-2.34,2.73-2.34c1.85,0,2.77.78,2.77,2.34V64.75a11.11,11.11,0,0,1-3.18,8q-3.16,3.3-9.23,3.31A14,14,0,0,1,136.76,75a11.46,11.46,0,0,1-3.71-2.67c-1.08-1.45-1-2.65.34-3.62A2.28,2.28,0,0,1,136.63,68.93Zm-.38-13.47a6.92,6.92,0,0,0,2,5.09,6.63,6.63,0,0,0,4.91,2,6.28,6.28,0,0,0,4.71-2,6.75,6.75,0,0,0,1.9-4.84,7.4,7.4,0,0,0-1.88-5.2,6.23,6.23,0,0,0-4.82-2,6.53,6.53,0,0,0-4.82,2A6.85,6.85,0,0,0,136.25,55.46Z"/><path class="cls-2" d="M159.86,38.06h7.21c7.08,0,11.9,3.67,11.9,10s-4.78,10.32-11.86,10.32h-4.35V69.75h-2.9ZM176,48.13c0-4.69-3.28-7.29-8.7-7.29h-4.52V55.59h4.52C172.7,55.59,176,52.82,176,48.13Z"/><path class="cls-2" d="M181.75,58.32c0-7.33,5-11.9,10.44-11.9a9.44,9.44,0,0,1,8.41,4.95l.38-4.48h2.35V69.75H201l-.38-4.48a9.44,9.44,0,0,1-8.41,5C186.78,70.22,181.75,65.62,181.75,58.32Zm18.76,0c0-5.37-3.54-9.08-7.93-9.08s-7.93,3.62-7.93,9.12,3.49,9.13,7.93,9.13S200.51,63.74,200.51,58.28Z"/><path class="cls-2" d="M215,78.71h-3l4-9.85-8.48-22h3.19l6.78,18.26h.09l6.78-18.26h3.07Z"/><path class="cls-1" d="M149.59,35.18A26.09,26.09,0,0,1,115,23.46L113.9,24c6.12,13.43,23,19,36.31,12.43A27.16,27.16,0,0,0,162.42,0l-.91.45C167.73,13,162.17,29,149.59,35.18Z"/><path class="cls-3" d="M141.17,11.22l16.89-8.36a1.67,1.67,0,0,1,2.31.91,23.66,23.66,0,0,1,.9,13.44,1.68,1.68,0,0,1-2.17,1.23l-17.85-6A.64.64,0,0,1,141.17,11.22Zm-1.11,3.27a.64.64,0,0,1,.79-.89l17.85,6a1.67,1.67,0,0,1,1,2.29,23.6,23.6,0,0,1-8.87,10.14,1.67,1.67,0,0,1-2.39-.68Zm-1.12.56,8.36,16.89a1.68,1.68,0,0,1-.91,2.31,23.66,23.66,0,0,1-13.44.9A1.67,1.67,0,0,1,131.72,33l6-17.85A.64.64,0,0,1,138.94,15.05Zm-10.7,18.51a23.61,23.61,0,0,1-10.14-8.87,1.67,1.67,0,0,1,.68-2.39l16.89-8.36a.64.64,0,0,1,.89.78l-6,17.85A1.68,1.68,0,0,1,128.24,33.56Z"/><path class="cls-2" d="M130.53,32.57l6-17.85a.64.64,0,0,0-.89-.78L118.78,22.3a1.67,1.67,0,0,0-.68,2.39,23.61,23.61,0,0,0,10.14,8.87A1.68,1.68,0,0,0,130.53,32.57Z"/><path class="cls-2" d="M133,35.15a23.66,23.66,0,0,0,13.44-.9,1.68,1.68,0,0,0,.91-2.31l-8.36-16.89a.64.64,0,0,0-1.19.08l-6,17.85A1.67,1.67,0,0,0,133,35.15Z"/><path class="cls-2" d="M150.81,32.06a23.6,23.6,0,0,0,8.87-10.14,1.67,1.67,0,0,0-1-2.29l-17.85-6a.64.64,0,0,0-.79.89l8.36,16.89A1.67,1.67,0,0,0,150.81,32.06Z"/><path class="cls-2" d="M159.1,18.44a1.68,1.68,0,0,0,2.17-1.23,23.66,23.66,0,0,0-.9-13.44,1.67,1.67,0,0,0-2.31-.91l-16.89,8.36a.64.64,0,0,0,.08,1.18Z"/></g></g></svg>