<svg xmlns="http://www.w3.org/2000/svg" viewBox="0 0 203.93 40.28"><defs><style>.cls-1{fill:#ed6d33;}.cls-2{fill:#e24241;}.cls-3{fill:#f6f2d0;}</style></defs><g id="레이어_2" data-name="레이어 2"><g id="레이어_1-2" data-name="레이어 1"><path class="cls-1" d="M68.05,27.47,61.46,10.83,54.87,27.47C54.08,29.4,52.81,30,51,29.19c-1.42-.62-1.79-1.83-1.09-3.65l7.9-19.41H52.39A2.12,2.12,0,0,1,50,3.74a2.11,2.11,0,0,1,2.36-2.4h17.8a2.14,2.14,0,0,1,2.44,2.4,2.16,2.16,0,0,1-2.48,2.39H65L73,25.54c.67,1.82.31,3-1.09,3.65C70.11,30,68.84,29.4,68.05,27.47Zm17.31-9.75H82.75a1,1,0,0,0-1.17,1.18V35.32a2.75,2.75,0,1,1-5.5,0V2.81C76.08.94,77,0,78.85,0s2.73.94,2.73,2.81v8.45a1,1,0,0,0,1.17,1.13h2.61A2.36,2.36,0,0,1,88,15.08,2.33,2.33,0,0,1,85.36,17.72Z"/><path class="cls-1" d="M95.14,16.42a2.68,2.68,0,0,1-2-.8,2.57,2.57,0,0,1-.82-1.93V3.82a2.61,2.61,0,0,1,.82-1.91,2.66,2.66,0,0,1,2-.82H119.5a2.59,2.59,0,0,1,1.91.82,2.61,2.61,0,0,1,.82,1.91v9.87a2.57,2.57,0,0,1-.82,1.93,2.61,2.61,0,0,1-1.91.8h-9.4v1.64a1,1,0,0,0,1.17,1.18h11a2.09,2.09,0,0,1,2.35,2.39A2.07,2.07,0,0,1,122.32,24h-7.18a10.2,10.2,0,0,1,2,2.77,8.92,8.92,0,0,1,0,7.56,9.52,9.52,0,0,1-2.31,3.07,11.23,11.23,0,0,1-3.38,2.1,11.11,11.11,0,0,1-8.28,0,11.36,11.36,0,0,1-3.38-2.1,9.32,9.32,0,0,1-2.29-3.07,8.91,8.91,0,0,1-.81-3.78,8.71,8.71,0,0,1,.84-3.78A9.46,9.46,0,0,1,99.43,24H92.29a2.07,2.07,0,0,1-2.35-2.35,2.09,2.09,0,0,1,2.35-2.39h11.09c.75,0,1.13-.4,1.13-1.18V16.42ZM98.71,5.71a.74.74,0,0,0-.84.84v4.5c0,.53.28.79.84.79h17.22a.7.7,0,0,0,.8-.79V6.55c0-.56-.26-.84-.8-.84Zm14,24.66a5,5,0,0,0-.44-2.1,6.37,6.37,0,0,0-1.15-1.73,5.83,5.83,0,0,0-1.75-1.19,5,5,0,0,0-2.08-.44,5.07,5.07,0,0,0-2.12.44,5.27,5.27,0,0,0-1.7,1.19,6.1,6.1,0,0,0-1.2,1.73,5,5,0,0,0-.44,2.1,5.1,5.1,0,0,0,.44,2.1,6.19,6.19,0,0,0,1.2,1.72,5.27,5.27,0,0,0,1.7,1.19,5.07,5.07,0,0,0,2.12.45,5,5,0,0,0,2.08-.45,5.83,5.83,0,0,0,1.75-1.19,6.47,6.47,0,0,0,1.15-1.72A5.1,5.1,0,0,0,112.74,30.37Z"/><path class="cls-2" d="M146.43,24.7h.67a2.08,2.08,0,0,1,2.36,2.35,2.07,2.07,0,0,1-2.36,2.31H130.51a2.08,2.08,0,0,1-2.39-2.31,2.09,2.09,0,0,1,2.39-2.35h.42c.54,0,.8-.28.8-.84v-17c0-.56-.26-.84-.8-.84h-.33a2.1,2.1,0,0,1-2.4-2.35,2.11,2.11,0,0,1,2.4-2.36h16A2.08,2.08,0,0,1,149,3.7a2.08,2.08,0,0,1-2.35,2.35h-.17a.74.74,0,0,0-.84.84v17A.74.74,0,0,0,146.43,24.7Zm-5.92-.84v-17c0-.56-.27-.84-.8-.84h-2a.74.74,0,0,0-.84.84v17a.74.74,0,0,0,.84.84h2C140.24,24.7,140.51,24.42,140.51,23.86Zm10.21-11.47a.78.78,0,0,0,.88-.88V3.07a2.63,2.63,0,1,1,5.25,0V34.61a2.63,2.63,0,1,1-5.25,0V18.23a.74.74,0,0,0-.84-.84h-1.51c-1.71,0-2.57-.83-2.57-2.48a2.25,2.25,0,0,1,2.57-2.52ZM165,2.73V35.41a2.67,2.67,0,1,1-5.33,0V2.73c0-1.82.88-2.73,2.65-2.73S165,.91,165,2.73Z"/><path class="cls-2" d="M193,12.73a11.18,11.18,0,0,1-.86,4.38,10,10,0,0,1-2.46,3.51,11,11,0,0,1-3.63,2.46,11.56,11.56,0,0,1-4.56.9,11.3,11.3,0,0,1-4.47-.9,11.43,11.43,0,0,1-3.68-2.46,10.28,10.28,0,0,1-2.41-3.51,11,11,0,0,1-.86-4.38,11,11,0,0,1,.86-4.35,10.74,10.74,0,0,1,2.41-3.55A11.59,11.59,0,0,1,177,2.37a11.3,11.3,0,0,1,4.47-.9,11.56,11.56,0,0,1,4.56.9,11.15,11.15,0,0,1,3.63,2.46,10.44,10.44,0,0,1,2.46,3.55A11.14,11.14,0,0,1,193,12.73Zm-5.46,0a6.4,6.4,0,0,0-.5-2.52,6.65,6.65,0,0,0-1.31-2,5.71,5.71,0,0,0-2-1.32,5.84,5.84,0,0,0-2.29-.44,5.61,5.61,0,0,0-2.2.44,5.85,5.85,0,0,0-2,1.32,6.4,6.4,0,0,0-1.28,2,6.57,6.57,0,0,0-.48,2.52,6.65,6.65,0,0,0,.48,2.52,6.46,6.46,0,0,0,1.28,2,6.26,6.26,0,0,0,2,1.35,5.64,5.64,0,0,0,2.2.46,5.72,5.72,0,0,0,2.27-.46,6.37,6.37,0,0,0,1.93-1.35,7.15,7.15,0,0,0,1.32-2A6.16,6.16,0,0,0,187.55,12.73Zm10.84,22.63V2.81c0-1.87.92-2.81,2.77-2.81s2.77.94,2.77,2.81V35.36a2.77,2.77,0,0,1-5.54,0Z"/><path class="cls-1" d="M32.45,34.59A23.73,23.73,0,0,1,1,23.94l-1,.5c5.56,12.21,20.94,17.28,33,11.3A24.69,24.69,0,0,0,44.12,2.6L43.29,3C49,14.46,43.89,28.93,32.45,34.59Z"/><path class="cls-3" d="M24.8,12.81,40.16,5.2a1.53,1.53,0,0,1,2.1.83,21.53,21.53,0,0,1,.82,12.22,1.53,1.53,0,0,1-2,1.12L24.87,13.88A.58.58,0,0,1,24.8,12.81Zm-1,3A.58.58,0,0,1,24.5,15l16.24,5.48a1.53,1.53,0,0,1,.89,2.09,21.45,21.45,0,0,1-8.07,9.22,1.53,1.53,0,0,1-2.17-.62Zm-1,.51,7.6,15.35a1.53,1.53,0,0,1-.83,2.11,21.53,21.53,0,0,1-12.22.82,1.53,1.53,0,0,1-1.12-2l5.49-16.23A.58.58,0,0,1,22.77,16.29ZM13,33.12a21.41,21.41,0,0,1-9.22-8.07,1.52,1.52,0,0,1,.61-2.17l15.36-7.6a.59.59,0,0,1,.82.71L15.12,32.23A1.53,1.53,0,0,1,13,33.12Z"/><path class="cls-2" d="M15.12,32.23,20.61,16a.59.59,0,0,0-.82-.71L4.43,22.88a1.52,1.52,0,0,0-.61,2.17A21.41,21.41,0,0,0,13,33.12,1.53,1.53,0,0,0,15.12,32.23Z"/><path class="cls-2" d="M17.32,34.57a21.53,21.53,0,0,0,12.22-.82,1.53,1.53,0,0,0,.83-2.11l-7.6-15.35a.58.58,0,0,0-1.08.07L16.2,32.59A1.53,1.53,0,0,0,17.32,34.57Z"/><path class="cls-2" d="M33.56,31.76a21.45,21.45,0,0,0,8.07-9.22,1.53,1.53,0,0,0-.89-2.09L24.5,15a.58.58,0,0,0-.71.81l7.6,15.36A1.53,1.53,0,0,0,33.56,31.76Z"/><path class="cls-2" d="M41.1,19.37a1.53,1.53,0,0,0,2-1.12A21.53,21.53,0,0,0,42.26,6a1.53,1.53,0,0,0-2.1-.83L24.8,12.81a.58.58,0,0,0,.07,1.07Z"/></g></g></svg>