<svg xmlns="http://www.w3.org/2000/svg" width="38.559" height="38.559" viewBox="0 0 38.559 38.559"><defs><style>.a{fill:#ffb782;}.b{fill:#f2a46f;}.c{fill:#f5ab76;}.d{fill:#0165fa;}.e{fill:#126099;}.f{fill:#628a27;}.g{fill:#6b962a;}.h{fill:#88b337;}.i{fill:#dadddf;}.j{fill:#80a834;}.k{fill:#083863;}</style></defs><g transform="translate(0)"><g transform="translate(0)"><path class="a" d="M203.75,300.117a1.919,1.919,0,0,0-2.583.578l-2.841,4.265v-8.354a1.928,1.928,0,1,0-3.856,0,1.928,1.928,0,1,0-3.856,0,1.928,1.928,0,1,0-3.856,0,1.928,1.928,0,1,0-3.856,0v13.5a3.856,3.856,0,0,0,3.856,3.856h8.014a5.141,5.141,0,0,0,4.409-2.5l5.227-8.712A1.918,1.918,0,0,0,203.75,300.117Z" transform="translate(-171.334 -276.04)"/><path class="b" d="M295.962,452.88h-1.285a5.791,5.791,0,0,1,5.784-5.784h2.571v1.285h-2.571A4.5,4.5,0,0,0,295.962,452.88Z" transform="translate(-276.04 -418.819)"/><rect class="c" width="15.424" height="1.285" transform="translate(11.568 23.778)"/><rect class="b" width="1.285" height="6.427" transform="translate(14.781 20.565)"/><rect class="b" width="1.285" height="6.427" transform="translate(18.637 20.565)"/><rect class="b" width="1.285" height="6.427" transform="translate(22.493 20.565)"/><rect class="d" width="37.274" height="8.997" transform="translate(0.643 0.643)"/><path class="e" d="M81.011,50.806H52.734a1.928,1.928,0,0,0,0,3.856H81.011a1.928,1.928,0,0,0,0-3.856Z" transform="translate(-47.593 -47.593)"/><rect class="f" width="26.991" height="15.424" transform="translate(5.784 8.355)"/><rect class="g" width="26.991" height="15.424" transform="translate(5.784 5.784)"/><rect class="h" width="26.991" height="15.424" transform="translate(5.784 3.213)"/><path class="g" d="M152.019,101.733H134.025a1.928,1.928,0,0,0-1.928-1.928h0V93.379h0a1.928,1.928,0,0,0,1.928-1.928h17.994a1.928,1.928,0,0,0,1.928,1.928h0v6.427h0A1.928,1.928,0,0,0,152.019,101.733Z" transform="translate(-123.742 -85.667)"/><rect class="h" width="1.285" height="1.285" transform="translate(10.925 10.282)"/><rect class="h" width="1.285" height="1.285" transform="translate(26.349 10.282)"/><path class="i" d="M24.822,380.467a4.5,4.5,0,0,1-4.5-4.5h1.285a3.217,3.217,0,0,0,3.213,3.213Z" transform="translate(-19.038 -352.19)"/><ellipse class="h" cx="4.499" cy="5.141" rx="4.499" ry="5.141" transform="translate(14.781 5.784)"/><rect class="j" width="26.991" height="2.571" transform="translate(5.784 3.213)"/><path class="k" d="M71.428,62.123a.627.627,0,0,0,.064-.271V45.786a2.571,2.571,0,1,0,0-5.141H43.216a2.571,2.571,0,1,0,0,5.141V61.853a.643.643,0,0,0,.643.643H49v9.64a4.5,4.5,0,0,0,4.5,4.5h8.015a5.813,5.813,0,0,0,4.959-2.808L71.7,65.113A2.524,2.524,0,0,0,71.428,62.123Zm-5.72.372h1.584l-1.584,2.378ZM44.5,57.354H70.207v1.285H44.5ZM72.778,43.216A1.285,1.285,0,0,1,71.492,44.5V41.93A1.285,1.285,0,0,1,72.778,43.216ZM70.207,41.93V56.069H44.5V41.93ZM41.93,43.216a1.285,1.285,0,0,1,1.285-1.285V44.5A1.285,1.285,0,0,1,41.93,43.216ZM44.5,61.21V59.925H70.207V61.21Zm26.1,3.242L65.37,73.163a4.521,4.521,0,0,1-3.856,2.185H53.5a3.217,3.217,0,0,1-3.213-3.213V62.5h2.571v2.571h1.285V62.5h2.571v2.571H58V62.5h2.571v2.571h1.285V62.5h2.571v3.856H62.5a5.791,5.791,0,0,0-5.784,5.784H58a4.5,4.5,0,0,1,4.5-4.5h2.571a.642.642,0,0,0,.535-.284l2.841-4.262A1.276,1.276,0,0,1,70.6,64.454Z" transform="translate(-38.074 -38.074)"/><path class="k" d="M37.917,0H.643A.643.643,0,0,0,0,.643v9a.643.643,0,0,0,.643.643H3.856V9H1.285V1.285H37.274V9H34.7v1.285h3.213a.643.643,0,0,0,.643-.643v-9A.643.643,0,0,0,37.917,0Z"/><path class="k" d="M122.579,90.93a1.285,1.285,0,0,1,1.285,1.285.643.643,0,0,0,.643.643H142.5a.643.643,0,0,0,.643-.643,1.285,1.285,0,0,1,1.285-1.285.643.643,0,0,0,.643-.643V83.861a.643.643,0,0,0-.643-.643,1.285,1.285,0,0,1-1.285-1.285.643.643,0,0,0-.643-.643H124.507a.643.643,0,0,0-.643.643,1.285,1.285,0,0,1-1.285,1.285.643.643,0,0,0-.643.643v6.427A.643.643,0,0,0,122.579,90.93Zm7.069-3.856c0-2.481,1.729-4.5,3.856-4.5s3.856,2.018,3.856,4.5-1.729,4.5-3.856,4.5S129.648,89.555,129.648,87.074Zm12.291-4.5a2.581,2.581,0,0,0,1.847,1.847v5.3a2.581,2.581,0,0,0-1.847,1.847h-5.211a6.237,6.237,0,0,0,0-9h5.211Zm-18.718,1.847a2.581,2.581,0,0,0,1.847-1.847h5.211a6.237,6.237,0,0,0,0,9h-5.211a2.581,2.581,0,0,0-1.847-1.847Z" transform="translate(-114.224 -76.149)"/><rect class="k" width="1.285" height="1.285" transform="translate(10.925 10.282)"/><rect class="k" width="1.285" height="1.285" transform="translate(26.349 10.282)"/><path class="k" d="M21.608,375.968H20.323a4.5,4.5,0,0,0,4.5,4.5v-1.285A3.217,3.217,0,0,1,21.608,375.968Z" transform="translate(-19.038 -352.19)"/></g></g></svg>