<svg xmlns="http://www.w3.org/2000/svg" width="337.979" height="207.13" viewBox="0 0 337.979 207.13"><defs><style>.a,.l,.p{fill:#fff;}.a{opacity:0.071;}.b{opacity:0.272;}.c,.m{fill:#f0f0f0;}.c{opacity:0.219;}.d{fill:#27debf;}.e{fill:#263238;}.f{fill:#37474f;}.g{fill:#054ec4;}.h{fill:#0363f7;}.i{fill:#455a64;}.j{fill:#0662f5;}.k,.u{opacity:0.2;}.l{opacity:0.3;}.n{fill:#0b60f1;}.o{fill:#ffa8a7;}.q{fill:#f28f8f;}.r{fill:#105eee;}.s{opacity:0.1;}.t{fill:#3d4ccd;}.v{fill:#e0e0e0;}</style></defs><g transform="translate(-24.924 -277.87)"><path class="a" d="M334.483,762.432,131.906,860.709H66.889L320.848,751.8Z" transform="translate(-41.966 -375.709)"/><g transform="translate(112.252 107.415)"><g class="b" transform="translate(157.798 227.508)"><path class="c" d="M164.689,302.6c7.17,4.13,23.985,1.126,37.557-6.71l37.271-21.519c13.573-7.835,18.75-17.528,11.563-21.649s-24.014-1.11-37.587,6.727l-37.211,21.484C162.709,288.771,157.519,298.471,164.689,302.6Z" transform="translate(-161.465 -250.878)"/></g><g transform="translate(148.845 170.454)"><path class="d" d="M172.037,315.211l8.645-4.991-2.881-1.663-8.645,4.991Z" transform="translate(-154.747 -210.585)"/><path class="d" d="M196.41,301.14l8.645-4.992-2.881-1.663-8.645,4.991Z" transform="translate(-161.829 -206.496)"/><path class="e" d="M187.25,299.113a14.43,14.43,0,0,1-6.534,11.322c-1.923,1.114-3.653,1.149-4.845.312a.007.007,0,0,0-.007-.007,4.3,4.3,0,0,1-1.639-3.143,7.928,7.928,0,0,0,.731-.376,14.431,14.431,0,0,0,6.534-11.322,6.473,6.473,0,0,0-.057-.929,4.411,4.411,0,0,1,3.575-.255C186.384,295.3,187.25,296.843,187.25,299.113Z" transform="translate(-156.22 -206.484)"/><path class="f" d="M186.365,288.653a1.063,1.063,0,0,1-.121-.071c-1.816-.965-4.285-.788-7,.787-5.569,3.214-10.088,11.031-10.088,17.466,0,3.235,1.142,5.5,2.987,6.548,1.823,1.036,4.335.873,7.1-.724,5.569-3.214,10.081-11.038,10.081-17.473C189.324,291.966,188.2,289.7,186.365,288.653Zm-7.122,19.906c-1.93,1.114-3.661,1.149-4.852.3a4.739,4.739,0,0,1-1.688-4.079,14.46,14.46,0,0,1,6.541-11.322,4.825,4.825,0,0,1,4.292-.624c1.376.589,2.242,2.128,2.242,4.4A14.431,14.431,0,0,1,179.243,308.559Z" transform="translate(-154.747 -204.608)"/><path class="g" d="M185.311,294.874a.726.726,0,0,1-.078-.046c-1.177-.625-2.777-.51-4.539.511a14.445,14.445,0,0,0-6.539,11.322c0,2.1.74,3.564,1.936,4.244s2.81.566,4.6-.469a14.45,14.45,0,0,0,6.535-11.326C187.229,297.021,186.5,295.554,185.311,294.874Zm-4.616,14.08c-1.551.9-2.943.924-3.9.245a3.809,3.809,0,0,1-1.357-3.279,11.626,11.626,0,0,1,5.258-9.1,3.878,3.878,0,0,1,3.45-.5c1.107.473,1.8,1.71,1.8,3.536A11.6,11.6,0,0,1,180.7,308.953Z" transform="translate(-156.2 -206.484)"/><path class="d" d="M220.782,287.068l8.645-4.992-2.882-1.663L217.9,285.4Z" transform="translate(-168.912 -202.407)"/><path class="d" d="M245.155,273l8.645-4.991-2.881-1.664-8.645,4.991Z" transform="translate(-175.994 -198.318)"/><path class="d" d="M269.527,258.926l8.645-4.991-2.881-1.663-8.645,4.991Z" transform="translate(-183.076 -194.229)"/><path class="h" d="M209.732,196.112c.568-.487,1.14-.285,1.278.45a2.591,2.591,0,0,1-.778,2.213c-.568.487-1.14.286-1.278-.449A2.6,2.6,0,0,1,209.732,196.112Z" transform="translate(-166.303 -177.833)"/><path class="h" d="M216.555,199.273l-5.785-3.339-1.266,3.055,5.8,3.347Z" transform="translate(-166.472 -177.858)"/><path class="d" d="M217.856,200.8c.568-.487,1.14-.286,1.278.45a2.591,2.591,0,0,1-.778,2.213c-.568.487-1.14.286-1.278-.45A2.593,2.593,0,0,1,217.856,200.8Z" transform="translate(-168.664 -179.196)"/><path class="i" d="M272.577,237.57c.007.142.021.27.021.411,0,.283-.007.574-.028.866a4.825,4.825,0,0,0-4.292.624,14.463,14.463,0,0,0-6.541,11.322,4.738,4.738,0,0,0,1.688,4.079,10.281,10.281,0,0,1-.915.582c-.114.064-.22.113-.333.17l-1,3.768-5.789-3.229c-1.83-1.057-2.958-3.313-2.958-6.533,0-6.435,4.512-14.252,10.081-17.473,2.752-1.589,5.243-1.753,7.066-.738v-.008l5.7,3.179a.969.969,0,0,0,.12.07Z" transform="translate(-178.945 -187.985)"/><path class="f" d="M277.76,235.977a.987.987,0,0,1-.121-.07c-1.816-.966-4.285-.788-7,.787-5.569,3.213-10.088,11.031-10.088,17.465,0,3.236,1.142,5.5,2.987,6.549,1.823,1.035,4.335.873,7.1-.724,5.569-3.214,10.081-11.038,10.081-17.473C280.719,239.29,279.591,237.028,277.76,235.977Zm-7.123,19.906c-1.93,1.114-3.66,1.15-4.852.305a4.739,4.739,0,0,1-1.688-4.079,14.462,14.462,0,0,1,6.541-11.322,4.825,4.825,0,0,1,4.292-.624c1.376.589,2.242,2.128,2.242,4.4A14.43,14.43,0,0,1,270.638,255.883Z" transform="translate(-181.305 -189.301)"/><path class="e" d="M278.645,246.438a14.43,14.43,0,0,1-6.534,11.322c-1.922,1.114-3.653,1.15-4.845.312a.007.007,0,0,0-.007-.007,4.3,4.3,0,0,1-1.639-3.143,8.1,8.1,0,0,0,.731-.375,14.432,14.432,0,0,0,6.534-11.323,6.461,6.461,0,0,0-.057-.929,4.411,4.411,0,0,1,3.575-.255C277.779,242.628,278.645,244.168,278.645,246.438Z" transform="translate(-182.778 -191.178)"/><path class="g" d="M276.707,242.2a.777.777,0,0,1-.078-.046c-1.178-.626-2.778-.511-4.54.51a14.449,14.449,0,0,0-6.539,11.323c0,2.1.741,3.564,1.936,4.244s2.81.565,4.6-.469a14.451,14.451,0,0,0,6.535-11.327C278.624,244.349,277.893,242.882,276.707,242.2ZM272.09,256.28c-1.551.9-2.943.924-3.9.245a3.812,3.812,0,0,1-1.357-3.28,11.623,11.623,0,0,1,5.258-9.1,3.88,3.88,0,0,1,3.451-.5c1.107.474,1.8,1.711,1.8,3.536A11.6,11.6,0,0,1,272.09,256.28Z" transform="translate(-182.758 -191.178)"/><path class="g" d="M266.643,244.185l16.319-9.422c1.9-1.1-4.293-7.52-8.832-7.947a17.672,17.672,0,0,0-7.487.732s3.481,4.464,2.882,7S266.643,244.185,266.643,244.185Z" transform="translate(-183.075 -186.805)"/><path class="j" d="M219.4,213.814s23.65,11.927,24.673,12.643.032,9.042-1.62,13.977-4.125,12.516-5.123,14.68-2.308,2.92-4.7,4.3-17.037,9.842-17.037,9.842l-23.037,2.784-9.149-4.991,2.378-14.973s24.5-13.035,27.855-14.974S226.916,226.113,219.4,213.814Z" transform="translate(-158.888 -183.054)"/><path class="k" d="M219.4,213.814s23.65,11.927,24.673,12.643.032,9.042-1.62,13.977-4.125,12.516-5.123,14.68-2.308,2.92-4.7,4.3-17.037,9.842-17.037,9.842l-23.037,2.784-9.149-4.991,2.378-14.973s24.5-13.035,27.855-14.974S226.916,226.113,219.4,213.814Z" transform="translate(-158.888 -183.054)"/><path class="h" d="M260.454,237.645c2.115-5.721,3.721-10.462,3.447-13.657-.325-3.8-1.739-6.9-8-8.459s-15.027-1.538-15.027-1.538l-2.665,1.538S256.2,225.958,258.242,227.1c1.248.7,2.582,3.834.138,13.39l.419.242C259.03,240.861,259.775,239.482,260.454,237.645Z" transform="translate(-174.813 -183.105)"/><path class="l" d="M260.454,237.645c2.115-5.721,3.721-10.462,3.447-13.657-.325-3.8-1.739-6.9-8-8.459s-15.027-1.538-15.027-1.538l-2.665,1.538S256.2,225.958,258.242,227.1c1.248.7,2.582,3.834.138,13.39l.419.242C259.03,240.861,259.775,239.482,260.454,237.645Z" transform="translate(-174.813 -183.105)"/><path class="h" d="M240.926,216.835l2.908-1.664s-.17-10.081-4.408-12.528-18.646-.782-18.646-.782l-2.882,1.664Z" transform="translate(-168.911 -179.42)"/><path class="m" d="M236.636,206.195c-1.383.8-1.383,2.092,0,2.889a5.53,5.53,0,0,0,5,0c1.382-.8,1.382-2.091,0-2.889A5.531,5.531,0,0,0,236.636,206.195Z" transform="translate(-174.055 -180.666)"/><path class="m" d="M243,213.058a1.078,1.078,0,0,0,0,2.043,3.912,3.912,0,0,0,3.539,0,1.079,1.079,0,0,0,0-2.043A3.912,3.912,0,0,0,243,213.058Z" transform="translate(-175.993 -182.711)"/><path class="m" d="M227.291,204.452a1.078,1.078,0,0,0,0,2.043,3.912,3.912,0,0,0,3.539,0,1.078,1.078,0,0,0,0-2.043A3.91,3.91,0,0,0,227.291,204.452Z" transform="translate(-171.427 -180.21)"/><path class="d" d="M250.615,218.959c.568-.487,1.14-.286,1.278.449a2.592,2.592,0,0,1-.778,2.213.715.715,0,0,1-1.278-.45A2.593,2.593,0,0,1,250.615,218.959Z" transform="translate(-178.183 -184.472)"/><path class="h" d="M257.438,222.119l-5.785-3.339-1.266,3.055,5.8,3.347Z" transform="translate(-178.352 -184.497)"/><path class="d" d="M258.739,223.649c.568-.487,1.14-.286,1.278.45a2.591,2.591,0,0,1-.778,2.213c-.568.487-1.14.286-1.278-.449A2.6,2.6,0,0,1,258.739,223.649Z" transform="translate(-180.544 -185.835)"/><path d="M258.739,223.649c.568-.487,1.14-.286,1.278.45a2.591,2.591,0,0,1-.778,2.213c-.568.487-1.14.286-1.278-.449A2.6,2.6,0,0,1,258.739,223.649Z" transform="translate(-180.544 -185.835)"/><path class="i" d="M181.182,290.245c.007.142.021.27.021.411,0,.284-.007.575-.028.866a4.825,4.825,0,0,0-4.292.624,14.46,14.46,0,0,0-6.541,11.322,4.739,4.739,0,0,0,1.688,4.079,10.482,10.482,0,0,1-.915.582c-.114.064-.22.113-.333.17l-1,3.767-5.789-3.228c-1.83-1.057-2.958-3.313-2.958-6.534,0-6.434,4.512-14.252,10.081-17.473,2.752-1.589,5.242-1.752,7.066-.738v-.007l5.7,3.178a1.082,1.082,0,0,0,.121.071Z" transform="translate(-152.387 -203.291)"/><path class="h" d="M163.322,277.135,159,292.109l8.645,4.991,4.481-14.883Z" transform="translate(-151.796 -201.454)"/><path class="k" d="M163.322,277.135,159,292.109l8.645,4.991,4.481-14.883Z" transform="translate(-151.796 -201.454)"/><path class="n" d="M165.092,273.045s4.9,4.139,8.8,5.082c5.12,1.239,13.262,1.373,16.151,1.573,4.418.3,7.748.3,9.312-.26a93.123,93.123,0,0,0,8.959-4.732c2.882-1.664,4.107-8.194-3.834-9.982a79.951,79.951,0,0,0-16.337-1.664Z" transform="translate(-153.566 -197.365)"/><path class="f" d="M233.668,272.987a8.047,8.047,0,0,0-.494,1.922,4.266,4.266,0,0,0-.153,2.114,4.206,4.206,0,0,0,2.387,1.865,5.343,5.343,0,0,0,4.21-.814c1.465-.875,2.571-1.941,4.657-2.535a10.61,10.61,0,0,0,4.12-1.869c1.157-.929,2.7-3.5.489-4.091-2.232-.6-7.028,1.5-11.407,1.695Z" transform="translate(-173.282 -199.227)"/><path class="o" d="M233.966,270.569v3.28a2.193,2.193,0,0,0,2.8,1.268,2.927,2.927,0,0,0,1.879-2.6l.128-1.952Z" transform="translate(-173.58 -199.546)"/><path class="f" d="M239.654,241.99c.023,4.081-1.146,21.712-1.146,21.712s-1.669,2.112-5.294,0l-1.23-19.694Z" transform="translate(-173.004 -191.241)"/><path class="d" d="M210.65,259.584l11.337-6.545a2.885,2.885,0,0,0,0-5.1l-8.456-4.881a3.392,3.392,0,0,0-3.072,0L199.121,249.6a2.884,2.884,0,0,0,0,5.1l8.454,4.882A3.392,3.392,0,0,0,210.65,259.584Z" transform="translate(-163.009 -191.445)"/><path class="p" d="M210.65,259.584l11.337-6.545a2.885,2.885,0,0,0,0-5.1l-8.456-4.881a3.392,3.392,0,0,0-3.072,0L199.121,249.6a2.884,2.884,0,0,0,0,5.1l8.454,4.882A3.392,3.392,0,0,0,210.65,259.584Z" transform="translate(-163.009 -191.445)"/><path class="h" d="M199.489,251.376l8.457,4.881a3.4,3.4,0,0,0,3.073,0l11.336-6.545a.936.936,0,0,0,0-1.773l-8.456-4.881a3.392,3.392,0,0,0-3.072,0L199.489,249.6A.936.936,0,0,0,199.489,251.376Z" transform="translate(-163.377 -191.445)"/><g transform="translate(35.405 1.753)"><g transform="translate(0 12.846)"><path class="o" d="M206.374,192.948l-1.437,5.935-6.185.375,1.336-8.226Z" transform="translate(-198.752 -191.032)"/></g><g transform="translate(0.968)"><g transform="translate(11.722 10.287)"><path class="q" d="M217.57,187.425s.673,2.517.418,2.655a4.335,4.335,0,0,1-1.349.006Z" transform="translate(-216.639 -187.425)"/></g><path class="o" d="M211.616,175.2c1,1.171,1.9,3.092,1.2,7.791-.768,5.15-1.719,5.743-2.487,6.244-.994.648-5,.3-6.128-.519a12.888,12.888,0,0,1-3.944-7.2c-.583-3.63.634-7.652,3.3-8.334A8.98,8.98,0,0,1,211.616,175.2Z" transform="translate(-200.116 -172.925)"/></g></g><g transform="translate(33.226)"><path class="i" d="M198.569,186.717c.953.993,2.921,1.266,4.159,1.488s5.027.475,6.149-2.225.352-4.647,1.732-5.3a22.14,22.14,0,0,0,3.111-1.445c.36-.365.371-4.788-3.326-7.064s-9.356-2.862-13.081,1.842C194.46,177.619,195.645,183.671,198.569,186.717Z" transform="translate(-195.68 -170.454)"/><g transform="translate(6.599 7.682)"><path class="f" d="M204.983,191.394c.955.08,3.986-.4,4.9-1.643a10.6,10.6,0,0,0,1.39-4.654,2.036,2.036,0,0,1,1.644-1.937c.909-.289,2.935-1.282,2.935-1.282l.012-.553a15.776,15.776,0,0,1,1.957-.01c.428.077.2.705-.884,1.261s-4.034,1.6-4.493,1.963-.665,1.889-1.026,3.512S209.989,192.108,204.983,191.394Z" transform="translate(-204.983 -181.283)"/></g></g><path class="q" d="M215.013,202.664l3.527-2.037c.338-1.029-.2-1.544-1.174-1.48s-.665-.873-1.253-1.139c-.775-.352-1.212-.153-1.556-.315-.438-.205-.5-.579-.953-.623-2.027-.2-3.413,2.7-3.413,2.7Z" transform="translate(-166.671 -178.186)"/><path class="f" d="M183.055,236.756s15.671-7.77,18.409-9.039,7.016-3.077,9.292-3.075a3.708,3.708,0,0,1,3.4,3.477,26.331,26.331,0,0,1-.236,4.094,97.1,97.1,0,0,1-13.143,3.356C194.235,236.671,183.055,236.756,183.055,236.756Z" transform="translate(-158.786 -186.2)"/><path class="i" d="M185.449,234.927c.006,3.217-.3,6.564,1.039,8.921,1.3,2.279,8.6,7.813,15.442,6.662,4.47-.753,17.735-6.864,17.735-6.864s6.43-2.359,6.459-4.04c.043-2.479-.128-5.964-5.738-5.816-5.111.135-20.2,3.283-20.2,3.283Z" transform="translate(-159.474 -188.857)"/><path class="i" d="M189.836,198.38c2.424-2.537,4.063-2.746,5.225-2.439a40.926,40.926,0,0,1,7.726,3.1h0s-.936,9.067,3.495,11.68v14.126a4.9,4.9,0,0,1-2.064,3.058c-1.7,1.343-5.552,2.7-10.152,2.316-5.461-.453-8.609-6.319-8.609-6.319s-.143-11.556.633-16.146C186.994,202.395,189,199.257,189.836,198.38Z" transform="translate(-159.481 -177.829)"/><path class="f" d="M213.385,215.773a11.349,11.349,0,0,1-3.495-4.893s.32,4.341,3.495,6.544Z" transform="translate(-166.584 -182.201)"/><path class="o" d="M249.3,224.421a5.548,5.548,0,0,0,3.543-1.095s1.236-2.4,2.751-2.2c0,0,.271-1.016-.357-1.355s-.892-.242-1.144-.59-.287-1.02-1.4-1.02c-.468,0-.4-.335-1.537-.468s-2.259,2.486-3.088,2.486Z" transform="translate(-177.68 -184.18)"/><path class="i" d="M209.744,200.349c3.894.6,5.3,1.757,6.724,3.074,1.48,1.374,10.1,10.025,10.1,10.025l10.511,1.511a3.533,3.533,0,0,1,1.163,1.731,3.114,3.114,0,0,1-.36,2.9s-10.427.619-12.476.234-12.2-7.135-12.2-7.135a9.07,9.07,0,0,1-3.544-6.117C209,202.292,209.744,200.349,209.744,200.349Z" transform="translate(-166.438 -179.141)"/><g transform="translate(0 37.415)"><path class="r" d="M182.8,244.463l-16.132,19.665a4.5,4.5,0,0,1-.539.035,3.86,3.86,0,0,1-1.837-.433c-.007-.007-13.607-7.86-13.607-7.86l-.922-.532a3.48,3.48,0,0,1-.922-2.66v-3.313a19.389,19.389,0,0,1,9.691-16.792l16.246-9.378,17.288,9.982Z" transform="translate(-148.845 -223.195)"/></g><g class="s" transform="translate(0 37.415)"><path d="M182.8,244.463l-16.132,19.665a4.5,4.5,0,0,1-.539.035,3.86,3.86,0,0,1-1.837-.433c-.007-.007-13.607-7.86-13.607-7.86l-.922-.532a3.48,3.48,0,0,1-.922-2.66v-3.313a19.389,19.389,0,0,1,9.691-16.792l16.246-9.378,17.288,9.982Z" transform="translate(-148.845 -223.195)"/></g><g transform="translate(4.232 37.415)"><path class="h" d="M178.983,251.241l14.82-18.064-17.29-9.982-16.241,9.376a19.349,19.349,0,0,0-5.462,4.713Z" transform="translate(-154.81 -223.195)"/></g><g transform="translate(17.288 47.396)"><path class="t" d="M199.151,251.772a3.479,3.479,0,0,1-.922,2.66l-.922.532-22.247,12.847a3.56,3.56,0,0,1-1.305.4,4.472,4.472,0,0,1-.539.036v-4.817a19.381,19.381,0,0,1,9.7-16.792l1.837-1.057,14.4-8.321Z" transform="translate(-173.215 -237.265)"/><g class="u"><path class="t" d="M199.151,251.772a3.479,3.479,0,0,1-.922,2.66l-.922.532-22.247,12.847a3.56,3.56,0,0,1-1.305.4,4.472,4.472,0,0,1-.539.036v-4.817a19.381,19.381,0,0,1,9.7-16.792l1.837-1.057,14.4-8.321Z" transform="translate(-173.215 -237.265)"/></g></g><path class="v" d="M216.407,289.054l8.707-.03,12.456-7.2h0l-12.206,8.825-9.186.127Z" transform="translate(-168.411 -202.817)"/><path class="v" d="M185.691,304.361s15.692-5.917,17.011-6.612a33.828,33.828,0,0,0,4.441-3.239,1.888,1.888,0,0,0-.233-2.533s-6.4-.29-8.026.209c-.916.28-15.681,5.017-15.681,5.017Z" transform="translate(-158.829 -205.743)"/><path class="i" d="M184.494,299.9c-1.3-1.113-2.606-.653-2.921,1.027a5.927,5.927,0,0,0,1.779,5.058c1.3,1.113,2.606.653,2.921-1.027A5.927,5.927,0,0,0,184.494,299.9Z" transform="translate(-158.336 -207.892)"/></g></g></g></svg>