<svg xmlns="http://www.w3.org/2000/svg" xmlns:xlink="http://www.w3.org/1999/xlink" width="27" height="27" viewBox="0 0 27 27"><defs><style>.a{fill:#0165fa;stroke:#083863;}.a,.b{stroke-width:1.5px;}.b{fill:#fff;stroke:#0165fa;}.c,.f{fill:none;}.d{clip-path:url(#a);}.e,.g{stroke:none;}.g{fill:#0165fa;}</style><clipPath id="a"><circle class="a" cx="12" cy="12" r="12" transform="translate(0 0.312)"/></clipPath></defs><g transform="translate(-51.5 -615.812)"><g class="b" transform="translate(53 617.312)"><circle class="e" cx="12" cy="12" r="12"/><circle class="f" cx="12" cy="12" r="12.75"/></g><g class="c" transform="translate(60 621.312)"><path class="e" d="M5,0A5,5,0,1,1,0,5,5,5,0,0,1,5,0Z"/><path class="g" d="M 5 1 C 2.794390201568604 1 1 2.794390201568604 1 5 C 1 7.205610275268555 2.794390201568604 9 5 9 C 7.205610275268555 9 9 7.205610275268555 9 5 C 9 2.794390201568604 7.205610275268555 1 5 1 M 5 0 C 7.761420249938965 0 10 2.238580226898193 10 5 C 10 7.761420249938965 7.761420249938965 10 5 10 C 2.238580226898193 10 0 7.761420249938965 0 5 C 0 2.238580226898193 2.238580226898193 0 5 0 Z"/></g><g class="d" transform="translate(53 617)"><g class="c" transform="translate(5 15.312)"><path class="e" d="M7,0a7.263,7.263,0,0,1,7,7.5A7.263,7.263,0,0,1,7,15,7.263,7.263,0,0,1,0,7.5,7.263,7.263,0,0,1,7,0Z"/><path class="g" d="M 7 1 C 3.691590309143066 1 1 3.915889739990234 1 7.5 C 1 11.08411026000977 3.691590309143066 14 7 14 C 10.30840969085693 14 13 11.08411026000977 13 7.5 C 13 3.915889739990234 10.30840969085693 1 7 1 M 7 0 C 10.86598968505859 0 14 3.35785961151123 14 7.5 C 14 11.64213943481445 10.86598968505859 15 7 15 C 3.134010314941406 15 0 11.64213943481445 0 7.5 C 0 3.35785961151123 3.134010314941406 0 7 0 Z"/></g></g></g></svg>