<svg xmlns="http://www.w3.org/2000/svg" width="26.048" height="17.646" viewBox="0 0 26.048 17.646"><defs><style>.a{fill:#7c8298;}</style></defs><g transform="translate(-8 -88)"><g transform="translate(8 88)"><path class="a" d="M31.527,88H10.521A2.523,2.523,0,0,0,8,90.521v12.6a2.523,2.523,0,0,0,2.521,2.521H31.527a2.523,2.523,0,0,0,2.521-2.521v-12.6A2.523,2.523,0,0,0,31.527,88Zm1.681,15.125a1.682,1.682,0,0,1-1.681,1.681H10.521a1.682,1.682,0,0,1-1.681-1.681v-12.6a1.682,1.682,0,0,1,1.681-1.681H31.527a1.682,1.682,0,0,1,1.681,1.681Z" transform="translate(-8 -88)"/><path class="a" d="M46.3,120H41.26A1.262,1.262,0,0,0,40,121.26v3.361a1.262,1.262,0,0,0,1.26,1.26H46.3a1.262,1.262,0,0,0,1.26-1.26V121.26A1.262,1.262,0,0,0,46.3,120Zm-5.462,2.521h1.681v.84H40.84Zm5.882.84H45.042v-.84h1.681Zm0-1.681H45.042a.42.42,0,1,0-.84,0V124.2a.42.42,0,0,0,.84,0h1.681v.42a.421.421,0,0,1-.42.42H41.26a.421.421,0,0,1-.42-.42v-.42h1.681a.42.42,0,0,0,.84,0v-2.521a.42.42,0,1,0-.84,0H40.84v-.42a.421.421,0,0,1,.42-.42H46.3a.421.421,0,0,1,.42.42Z" transform="translate(-38.319 -118.319)"/><path class="a" d="M362.941,120a2.941,2.941,0,1,0,2.941,2.941A2.941,2.941,0,0,0,362.941,120Zm0,5.042a2.1,2.1,0,1,1,2.1-2.1A2.1,2.1,0,0,1,362.941,125.042Z" transform="translate(-341.514 -118.319)"/><path class="a" d="M342.722,296h-6.3a.42.42,0,0,0-.42.42v1.68a.42.42,0,0,0,.42.42h6.3a.42.42,0,0,0,.42-.42v-1.68A.42.42,0,0,0,342.722,296Zm-.42,1.681H336.84v-.84H342.3Z" transform="translate(-318.775 -285.077)"/><path class="a" d="M388.2,352H384.42a.42.42,0,0,0-.42.42v1.26a.42.42,0,0,0,.42.42H388.2a.42.42,0,0,0,.42-.42v-1.26A.42.42,0,0,0,388.2,352Zm-.42,1.26H384.84v-.42h2.941Z" transform="translate(-364.254 -338.136)"/><path class="a" d="M40.42,328.84h7.562a.42.42,0,0,0,0-.84H40.42a.42.42,0,1,0,0,.84Z" transform="translate(-38.319 -315.396)"/><path class="a" d="M49.663,352H40.42a.42.42,0,0,0,0,.84h9.243a.42.42,0,0,0,0-.84Z" transform="translate(-38.319 -338.136)"/><path class="a" d="M45.462,376H40.42a.42.42,0,1,0,0,.84h5.042a.42.42,0,0,0,0-.84Z" transform="translate(-38.319 -360.875)"/></g></g></svg>