<svg xmlns="http://www.w3.org/2000/svg" width="27.879" height="26.53" viewBox="0 0 27.879 26.53"><defs><style>.a{fill:#fff;}.b{fill:#7c8298;}</style></defs><g transform="translate(-164.712 -499.18)"><g transform="translate(164.712 499.18)"><path class="a" d="M280.584,8.391a5.957,5.957,0,1,1-5.713,4.257A5.957,5.957,0,0,1,280.584,8.391Zm0,0" transform="translate(-259.117 -7.939)"/><path class="a" d="M89.32,102v.006a3.093,3.093,0,0,1-3.093,3.09h-.01c-.071,0-.142,0-.212-.007A3.093,3.093,0,0,1,83.128,102v-2H72.762v-.027l.109-16.243H84.4l.008,0a5.965,5.965,0,0,0,4.913,7.612ZM77.087,89.424a.949.949,0,1,0-.994-.948A.972.972,0,0,0,77.087,89.424Zm0,3.926a.949.949,0,1,0-.994-.949A.972.972,0,0,0,77.087,93.35Zm0,3.926a.949.949,0,1,0-.994-.948A.971.971,0,0,0,77.087,97.276Zm0,0" transform="translate(-68.654 -79.025)"/><path class="a" d="M25.1,376.992V377H11.3a3.093,3.093,0,0,1-3.093-3.09V371.9H22.222v2A3.093,3.093,0,0,0,25.1,376.992Zm0,0" transform="translate(-7.747 -350.927)"/><g transform="translate(0 0)"><path class="b" d="M21.467.389A6.345,6.345,0,0,0,17.6,1.673a6.624,6.624,0,0,0-2.171,2.944H4.218a.472.472,0,0,0-.452.472L3.659,20.934H.464a.444.444,0,0,0-.464.43v2.007a3.563,3.563,0,0,0,3.388,3.537v.01H17.333v-.013c.113,0,.164.013.231.013h.01a3.552,3.552,0,0,0,3.542-3.548V13.2c.113.006.233.01.35.01a6.413,6.413,0,0,0,0-12.826ZM.9,23.371V21.837H14v1.527a3.619,3.619,0,0,0,1.206,2.651H3.556A2.659,2.659,0,0,1,.9,23.371ZM17.57,26.015h-.006c-.056,0-.126-.005-.191-.009a2.66,2.66,0,0,1-2.467-2.642v-2a.417.417,0,0,0-.431-.43H4.563l.1-15.414H15.178A7.012,7.012,0,0,0,15.054,6.8,6.683,6.683,0,0,0,15.6,9.416h-4.27a.452.452,0,0,0,0,.9h4.76a6.346,6.346,0,0,0,4.12,2.772V23.37A2.648,2.648,0,0,1,17.57,26.015Zm3.9-13.7a5.49,5.49,0,0,1-.739-.049h0a5.511,5.511,0,1,1,.74.05Zm0,0" transform="translate(0 -0.388)"/><path class="b" d="M125.208,212.523a1.4,1.4,0,1,0,1.445,1.4A1.425,1.425,0,0,0,125.208,212.523Zm0,1.9a.5.5,0,1,1,.542-.5A.522.522,0,0,1,125.208,214.42Zm0,0" transform="translate(-116.774 -200.546)"/><path class="b" d="M199.192,229.281H193.17a.452.452,0,1,0,0,.9h6.022a.452.452,0,1,0,0-.9Zm0,0" transform="translate(-181.838 -216.358)"/><path class="b" d="M125.208,142.98a1.4,1.4,0,1,0,1.445,1.4A1.425,1.425,0,0,0,125.208,142.98Zm0,1.9a.5.5,0,1,1,.542-.5A.521.521,0,0,1,125.208,144.877Zm0,0" transform="translate(-116.774 -134.93)"/><path class="b" d="M125.208,282.063a1.4,1.4,0,1,0,1.445,1.4A1.425,1.425,0,0,0,125.208,282.063Zm0,1.9a.5.5,0,1,1,.542-.5A.521.521,0,0,1,125.208,283.958Zm0,0" transform="translate(-116.774 -266.159)"/><path class="b" d="M199.192,299.281H193.17a.452.452,0,1,0,0,.9h6.022a.452.452,0,1,0,0-.9Zm0,0" transform="translate(-181.838 -282.406)"/></g></g><path class="b" d="M.533-6.766l.535-2.685H.278L-.167-6.766h-.906l-.5-2.339h-.84l-.5,2.339h-.906l-.445-2.685h-.791l.535,2.685h-.832v.527h.939L-3.9-3.463h.964l.568-2.776h.741l.568,2.776h.964L.426-6.239h.939v-.527ZM-2-8.059l.264,1.293h-.527Zm1.03,1.82H-.25L-.563-4.353Zm-2.776,0h.717l-.4,1.886Z" transform="translate(188.398 512.033)"/></g></svg>