<svg xmlns="http://www.w3.org/2000/svg" width="68.872" height="30" viewBox="0 0 68.872 30"><defs><style>.a,.b{fill:#fff;}.a{font-size:21px;font-family:NotoSansCJKkr-Medium, Noto Sans CJK KR;font-weight:500;}</style></defs><g transform="translate(-291.128 -57)"><text class="a" transform="translate(321 81)"><tspan x="0" y="0">결제</tspan></text><g transform="translate(291.128 -14.772)"><path class="b" d="M22.375,80H2.748A2.751,2.751,0,0,0,0,82.748V94.524a2.751,2.751,0,0,0,2.748,2.748H22.375a2.751,2.751,0,0,0,2.748-2.748V82.748A2.751,2.751,0,0,0,22.375,80ZM2.748,81.57H22.375a1.179,1.179,0,0,1,1.178,1.178v1.57H1.57v-1.57A1.179,1.179,0,0,1,2.748,81.57ZM22.375,95.7H2.748A1.179,1.179,0,0,1,1.57,94.524V85.888H23.552v8.636A1.179,1.179,0,0,1,22.375,95.7Z"/><path class="b" d="M81.57,306.355h-.785A.785.785,0,0,1,80,305.57v-.785a.785.785,0,0,1,.785-.785h.785a.785.785,0,0,1,.785.785v.785A.785.785,0,0,1,81.57,306.355Z" transform="translate(-76.075 -213.009)"/></g></g></svg>