<svg xmlns="http://www.w3.org/2000/svg" width="24.199" height="26.53" viewBox="0 0 24.199 26.53"><defs><style>.a{fill:#fff;}.b{fill:#0165fa;}</style></defs><g transform="translate(0)"><path class="a" d="M43.162,33.253H32.073A2.073,2.073,0,0,1,30,31.18V9.573A2.073,2.073,0,0,1,32.073,7.5H43.162a2.073,2.073,0,0,1,2.073,2.073V31.18A2.073,2.073,0,0,1,43.162,33.253Z" transform="translate(-29.611 -7.111)"/><path class="a" d="M68.54,34.225V55.833a.725.725,0,0,1-.725.725H56.725A.725.725,0,0,1,56,55.833V34.225a.725.725,0,0,1,.725-.725H58.8a.283.283,0,0,1,.268.191l.274.8a.283.283,0,0,0,.268.191h5.315a.283.283,0,0,0,.268-.191l.274-.8a.283.283,0,0,1,.268-.191h2.078A.725.725,0,0,1,68.54,34.225Z" transform="translate(-54.264 -31.764)"/><path class="a" d="M122.13,374.176h-4.042a1.088,1.088,0,1,1,0-2.176h4.042a1.088,1.088,0,0,1,0,2.176Z" transform="translate(-112.103 -352.724)"/><path class="a" d="M116.881,99.436H99.017A1.017,1.017,0,0,1,98,98.419v-10.4A1.017,1.017,0,0,1,99.017,87h17.863a1.017,1.017,0,0,1,1.017,1.017v10.4A1.017,1.017,0,0,1,116.881,99.436Z" transform="translate(-94.088 -82.492)"/><path class="a" d="M146.524,128.694h-3.213a.311.311,0,0,1-.311-.311v-2.073a.311.311,0,0,1,.311-.311h3.213a.311.311,0,0,1,.311.311v2.073A.311.311,0,0,1,146.524,128.694Z" transform="translate(-136.756 -119.471)"/><g transform="translate(0 0)"><g transform="translate(0 0)"><path class="b" d="M111.117,364.5a1.477,1.477,0,0,0,0,2.954h4.042a1.477,1.477,0,0,0,0-2.954Zm4.741,1.477a.7.7,0,0,1-.7.7h-4.042a.7.7,0,0,1,0-1.4h4.042A.7.7,0,0,1,115.858,365.977Z" transform="translate(-105.132 -345.613)"/><path class="b" d="M45.293,4.119H43.314a.389.389,0,0,0,0,.777h1.978a.629.629,0,0,1,.629.629v10.4a.629.629,0,0,1-.629.629H27.429a.629.629,0,0,1-.629-.629V5.525a.629.629,0,0,1,.629-.629H44.437a.389.389,0,0,0,0-.777H38.511V2.461A2.464,2.464,0,0,0,36.05,0H24.961A2.464,2.464,0,0,0,22.5,2.461v2.23a.389.389,0,0,0,.777,0V2.461A1.686,1.686,0,0,1,24.961.777H36.05a1.686,1.686,0,0,1,1.684,1.684V4.119h-.57V2.461A1.115,1.115,0,0,0,36.05,1.347H33.972a.673.673,0,0,0-.635.453l-.249.724H27.923L27.674,1.8a.672.672,0,0,0-.635-.452H24.961a1.115,1.115,0,0,0-1.114,1.114V24.069a1.115,1.115,0,0,0,1.114,1.114H36.05a1.115,1.115,0,0,0,1.114-1.114V18.641a.389.389,0,0,0-.777,0v5.428a.337.337,0,0,1-.337.337H24.961a.337.337,0,0,1-.337-.337V2.461a.337.337,0,0,1,.337-.337h2l.249.725a.672.672,0,0,0,.635.452h5.314a.672.672,0,0,0,.635-.453l.249-.724h2a.337.337,0,0,1,.337.337V4.119H27.429a1.407,1.407,0,0,0-1.406,1.406v10.4a1.407,1.407,0,0,0,1.406,1.406h8.958v3.709a.389.389,0,0,0,.777,0V17.333h.57v6.736a1.686,1.686,0,0,1-1.684,1.684H24.961a1.686,1.686,0,0,1-1.684-1.684V3.58a.389.389,0,0,0-.777,0V24.069a2.464,2.464,0,0,0,2.461,2.461H36.05a2.464,2.464,0,0,0,2.461-2.461V17.333h6.781A1.407,1.407,0,0,0,46.7,15.927V5.525a1.407,1.407,0,0,0-1.406-1.406Z" transform="translate(-22.5 0)"/><path class="a" d="M342.6,231.157a.389.389,0,0,0,.5-.225l.185-.486h1.272l.183.485a.389.389,0,1,0,.727-.274l-1.115-2.955,0-.011a.455.455,0,0,0-.422-.283h0a.455.455,0,0,0-.422.284l0,.009-1.125,2.955A.389.389,0,0,0,342.6,231.157Zm1.325-2.388.34.9h-.682Z" transform="translate(-325.774 -215.624)"/><path class="a" d="M398.153,229.376l0,1.415a.389.389,0,0,0,.388.39h0a.389.389,0,0,0,.389-.388l0-1.416.887-1.362a.389.389,0,1,0-.651-.424l-.624.959-.631-.967a.389.389,0,1,0-.651.425Z" transform="translate(-377.78 -215.623)"/><path class="a" d="M300.42,230.791a.389.389,0,0,0,.777,0v-.915l.446,0a1.234,1.234,0,1,0,0-2.469h-.835a.391.391,0,0,0-.389.39Zm1.223-2.608a.457.457,0,1,1,0,.914l-.442,0c0-.386,0-.519,0-.916h.445Z" transform="translate(-286.019 -215.622)"/><path class="b" d="M136.2,118.5a.7.7,0,0,0-.7.7v2.073a.7.7,0,0,0,.7.7h3.213a.7.7,0,0,0,.7-.7V119.2a.7.7,0,0,0-.7-.7Zm3.135,2.694h-3.057v-1.917h3.057Z" transform="translate(-129.645 -112.36)"/></g></g></g></svg>