<svg xmlns="http://www.w3.org/2000/svg" width="36.883" height="40.437" viewBox="0 0 36.883 40.437"><defs><style>.a{fill:#7b727b;}.b{fill:#686169;}.c{fill:#fff;}.d{fill:#0165fa;}.e{fill:#fec300;}.f{fill:#083863;}</style></defs><g transform="translate(0 0)"><path class="a" d="M50.061,46.752h-16.9A3.159,3.159,0,0,1,30,43.593V10.659A3.159,3.159,0,0,1,33.159,7.5h16.9a3.159,3.159,0,0,1,3.159,3.159V43.593A3.159,3.159,0,0,1,50.061,46.752Z" transform="translate(-29.408 -6.908)"/><path class="b" d="M256.369,7.5H254a3.159,3.159,0,0,1,3.159,3.159V43.593A3.159,3.159,0,0,1,254,46.752h2.369a3.159,3.159,0,0,0,3.159-3.159V10.659A3.159,3.159,0,0,0,256.369,7.5Z" transform="translate(-235.717 -6.908)"/><path class="c" d="M75.113,34.606V67.54a1.106,1.106,0,0,1-1.106,1.106h-16.9A1.106,1.106,0,0,1,56,67.54V34.606A1.106,1.106,0,0,1,57.106,33.5h3.167a.431.431,0,0,1,.408.291L61.1,35a.431.431,0,0,0,.408.291h8.1A.431.431,0,0,0,70.015,35l.417-1.213a.431.431,0,0,1,.408-.291h3.167A1.106,1.106,0,0,1,75.113,34.606Z" transform="translate(-53.354 -30.854)"/><path class="d" d="M124.819,375.317h-6.16a1.659,1.659,0,1,1,0-3.317h6.16a1.659,1.659,0,0,1,0,3.317Z" transform="translate(-109.537 -342.62)"/><path class="d" d="M126.777,105.955H99.55A1.55,1.55,0,0,1,98,104.4V88.55A1.55,1.55,0,0,1,99.55,87h27.227a1.55,1.55,0,0,1,1.55,1.55V104.4A1.55,1.55,0,0,1,126.777,105.955Z" transform="translate(-92.037 -80.129)"/><path class="e" d="M148.371,130.107h-4.9a.474.474,0,0,1-.474-.474v-3.159a.474.474,0,0,1,.474-.474h4.9a.474.474,0,0,1,.474.474v3.159A.474.474,0,0,1,148.371,130.107Z" transform="translate(-133.483 -116.049)"/><g transform="translate(0 0)"><g transform="translate(0 0)"><path class="f" d="M111.887,364.5a2.251,2.251,0,0,0,0,4.5h6.16a2.251,2.251,0,0,0,0-4.5Zm7.227,2.251a1.067,1.067,0,0,1-1.066,1.066h-6.16a1.066,1.066,0,0,1,0-2.132h6.16A1.067,1.067,0,0,1,119.113,366.751Z" transform="translate(-102.765 -335.712)"/><path class="f" d="M57.24,6.279H54.225a.592.592,0,0,0,0,1.185H57.24a.959.959,0,0,1,.958.958V24.276a.959.959,0,0,1-.958.958H30.013a.959.959,0,0,1-.958-.958V8.422a.959.959,0,0,1,.958-.958H55.936a.592.592,0,0,0,0-1.185H46.9V3.751A3.756,3.756,0,0,0,43.153,0h-16.9A3.756,3.756,0,0,0,22.5,3.751v3.4a.592.592,0,0,0,1.185,0v-3.4a2.57,2.57,0,0,1,2.567-2.567h16.9A2.57,2.57,0,0,1,45.72,3.751V6.279h-.869V3.751a1.7,1.7,0,0,0-1.7-1.7H39.986a1.025,1.025,0,0,0-.969.69l-.379,1.1H30.766l-.38-1.1a1.025,1.025,0,0,0-.968-.689H26.251a1.7,1.7,0,0,0-1.7,1.7V36.686a1.7,1.7,0,0,0,1.7,1.7h16.9a1.7,1.7,0,0,0,1.7-1.7V28.412a.592.592,0,0,0-1.185,0v8.274a.514.514,0,0,1-.513.513h-16.9a.514.514,0,0,1-.513-.513V3.752a.514.514,0,0,1,.513-.513H29.3l.38,1.1a1.024,1.024,0,0,0,.968.69h8.1a1.025,1.025,0,0,0,.969-.69l.379-1.1h3.053a.514.514,0,0,1,.513.513V6.279H30.013a2.145,2.145,0,0,0-2.143,2.143V24.276a2.145,2.145,0,0,0,2.143,2.143H43.666v5.653a.592.592,0,0,0,1.185,0V26.418h.869V36.685a2.57,2.57,0,0,1-2.567,2.567h-16.9a2.57,2.57,0,0,1-2.567-2.567V5.456a.592.592,0,0,0-1.185,0v31.23a3.756,3.756,0,0,0,3.751,3.751h16.9A3.756,3.756,0,0,0,46.9,36.685V26.418H57.24a2.145,2.145,0,0,0,2.143-2.143V8.422A2.145,2.145,0,0,0,57.24,6.279Z" transform="translate(-22.5 0)"/><path class="c" d="M342.729,233.122a.592.592,0,0,0,.764-.343l.282-.74h1.938l.279.739a.592.592,0,1,0,1.108-.418l-1.7-4.5-.006-.016a.694.694,0,0,0-.643-.431h0a.693.693,0,0,0-.643.433l-.005.013-1.715,4.5A.592.592,0,0,0,342.729,233.122Zm2.02-3.639.518,1.372h-1.04Z" transform="translate(-317.087 -209.448)"/><path class="c" d="M398.654,230.409l-.005,2.156a.592.592,0,0,0,.591.594h0a.592.592,0,0,0,.592-.591l.005-2.158,1.352-2.076a.592.592,0,1,0-.993-.646l-.952,1.462-.962-1.474a.592.592,0,1,0-.992.648Z" transform="translate(-367.603 -209.446)"/><path class="c" d="M300.42,232.566a.592.592,0,0,0,1.185,0v-1.4l.68,0a1.882,1.882,0,1,0,0-3.763h-1.272a.6.6,0,0,0-.592.594Zm1.864-3.976a.7.7,0,1,1,0,1.394l-.674,0c0-.588,0-.79,0-1.4h.678Z" transform="translate(-278.471 -209.446)"/><path class="f" d="M136.566,118.5a1.067,1.067,0,0,0-1.066,1.066v3.159a1.067,1.067,0,0,0,1.066,1.066h4.9a1.067,1.067,0,0,0,1.066-1.066v-3.159a1.067,1.067,0,0,0-1.066-1.066Zm4.778,4.107h-4.66v-2.922h4.66Z" transform="translate(-126.575 -109.141)"/></g></g></g></svg>