<svg xmlns="http://www.w3.org/2000/svg" width="43.137" height="29.222" viewBox="0 0 43.137 29.222"><defs><style>.a{fill:#0165fa;}.b{fill:#ffda44;}.c{fill:#fec300;}.d{fill:#57565c;}.e{fill:#083863;}</style></defs><g transform="translate(-8 -88)"><g transform="translate(8.696 88.696)"><rect class="a" width="41" height="27" rx="1" transform="translate(0.304 0.304)"/><rect class="b" width="12" height="9" rx="4.5" transform="translate(2.304 2.304)"/><path class="c" d="M4.175,0A4.175,4.175,0,1,1,0,4.175,4.175,4.175,0,0,1,4.175,0Z" transform="translate(30.613 2.783)"/><g transform="translate(28.526 18.09)"><path class="d" d="M344,304h10.436v2.783H344Z" transform="translate(-344 -304)"/><path class="d" d="M392,360h6.262v2.087H392Z" transform="translate(-387.825 -355.13)"/></g></g><g transform="translate(8 88)"><path class="e" d="M46.962,88H12.175A4.179,4.179,0,0,0,8,92.175v20.873a4.179,4.179,0,0,0,4.175,4.175H46.962a4.179,4.179,0,0,0,4.175-4.175V92.175A4.179,4.179,0,0,0,46.962,88Zm2.783,25.047a2.786,2.786,0,0,1-2.783,2.783H12.175a2.786,2.786,0,0,1-2.783-2.783V92.175a2.786,2.786,0,0,1,2.783-2.783H46.962a2.786,2.786,0,0,1,2.783,2.783Z" transform="translate(-8 -88)"/><path class="e" d="M50.436,120H42.087A2.09,2.09,0,0,0,40,122.087v5.566a2.09,2.09,0,0,0,2.087,2.087h8.349a2.09,2.09,0,0,0,2.087-2.087v-5.566A2.09,2.09,0,0,0,50.436,120Zm-9.045,4.175h2.783v1.392H41.392Zm9.741,1.392H48.349v-1.392h2.783Zm0-2.783H48.349a.7.7,0,0,0-1.392,0v4.175a.7.7,0,0,0,1.392,0h2.783v.7a.7.7,0,0,1-.7.7H42.087a.7.7,0,0,1-.7-.7v-.7h2.783a.7.7,0,0,0,1.392,0v-4.175a.7.7,0,0,0-1.392,0H41.392v-.7a.7.7,0,0,1,.7-.7h8.349a.7.7,0,0,1,.7.7Z" transform="translate(-37.217 -117.217)"/><path class="e" d="M364.87,120a4.87,4.87,0,1,0,4.87,4.87A4.87,4.87,0,0,0,364.87,120Zm0,8.349a3.479,3.479,0,1,1,3.479-3.479A3.479,3.479,0,0,1,364.87,128.349Z" transform="translate(-329.387 -117.217)"/><path class="e" d="M347.132,296H336.7a.7.7,0,0,0-.7.7v2.783a.7.7,0,0,0,.7.7h10.436a.7.7,0,0,0,.7-.7V296.7A.7.7,0,0,0,347.132,296Zm-.7,2.783h-9.045v-1.392h9.045Z" transform="translate(-307.474 -277.91)"/><path class="e" d="M390.958,352H384.7a.7.7,0,0,0-.7.7v2.087a.7.7,0,0,0,.7.7h6.262a.7.7,0,0,0,.7-.7V352.7A.7.7,0,0,0,390.958,352Zm-.7,2.087h-4.87v-.7h4.87Z" transform="translate(-351.299 -329.04)"/><path class="e" d="M40.7,329.392H53.219a.7.7,0,1,0,0-1.392H40.7a.7.7,0,1,0,0,1.392Z" transform="translate(-37.217 -307.127)"/><path class="e" d="M56,352H40.7a.7.7,0,0,0,0,1.392H56A.7.7,0,0,0,56,352Z" transform="translate(-37.217 -329.04)"/><path class="e" d="M49.045,376H40.7a.7.7,0,1,0,0,1.392h8.349a.7.7,0,1,0,0-1.392Z" transform="translate(-37.217 -350.953)"/></g></g></svg>