<svg xmlns="http://www.w3.org/2000/svg" width="44.005" height="41.876" viewBox="0 0 44.005 41.876"><defs><style>.a{fill:#0165fa;}.b{fill:#fff;}.c{fill:#fec300;}.d{fill:#083863;}</style></defs><g transform="translate(-164.712 -499.18)"><g transform="translate(164.711 499.18)"><path class="a" d="M284.032,8.391a9.4,9.4,0,1,1-9.018,6.719A9.4,9.4,0,0,1,284.032,8.391Zm0,0" transform="translate(-250.149 -7.677)"/><path class="b" d="M98.9,112.569v.01a4.882,4.882,0,0,1-4.882,4.877H94c-.112,0-.225,0-.335-.012a4.882,4.882,0,0,1-4.542-4.876v-3.157H72.762v-.043l.173-25.638h18.2l.013,0A9.415,9.415,0,0,0,98.9,95.75ZM79.589,92.717a1.5,1.5,0,1,0-1.569-1.5A1.534,1.534,0,0,0,79.589,92.717Zm0,6.2a1.5,1.5,0,1,0-1.569-1.5A1.534,1.534,0,0,0,79.589,98.915Zm0,6.2a1.5,1.5,0,1,0-1.569-1.5A1.533,1.533,0,0,0,79.589,105.111Zm0,0" transform="translate(-66.277 -76.303)"/><path class="a" d="M34.867,379.935v.011H13.093a4.882,4.882,0,0,1-4.882-4.877V371.9H30.325v3.157A4.882,4.882,0,0,0,34.867,379.935Zm0,0" transform="translate(-7.479 -338.794)"/><path class="c" d="M134.9,152.478a1.57,1.57,0,1,1-1.568-1.5A1.534,1.534,0,0,1,134.9,152.478Zm0,0" transform="translate(-120.019 -137.56)"/><path class="c" d="M134.9,222.02a1.571,1.571,0,1,1-1.568-1.5A1.534,1.534,0,0,1,134.9,222.02Zm0,0" transform="translate(-120.019 -200.906)"/><path class="c" d="M134.9,291.559a1.571,1.571,0,1,1-1.568-1.5A1.533,1.533,0,0,1,134.9,291.559Zm0,0" transform="translate(-120.019 -264.247)"/><g transform="translate(0 0)"><path class="d" d="M33.883.389a10.014,10.014,0,0,0-6.1,2.027,10.455,10.455,0,0,0-3.427,4.647H6.657a.746.746,0,0,0-.713.745l-.168,25.01H.732A.7.7,0,0,0,0,33.5v3.168a5.623,5.623,0,0,0,5.347,5.583v.016H27.359v-.021c.178.007.258.021.364.021h.015a5.606,5.606,0,0,0,5.591-5.6V20.616c.178.01.368.016.552.016a10.122,10.122,0,0,0,0-20.244ZM1.426,36.664v-2.42H22.1v2.41A5.713,5.713,0,0,0,24,40.838H5.613A4.2,4.2,0,0,1,1.426,36.664Zm26.307,4.174h-.01c-.089,0-.2-.008-.3-.015a4.2,4.2,0,0,1-3.894-4.169V33.5a.658.658,0,0,0-.681-.679H7.2L7.365,8.489H23.958a11.068,11.068,0,0,0-.2,2.024,10.548,10.548,0,0,0,.865,4.125h-6.74a.713.713,0,0,0,0,1.426H25.4a10.016,10.016,0,0,0,6.5,4.375V36.663A4.179,4.179,0,0,1,27.733,40.838Zm6.15-21.631a8.665,8.665,0,0,1-1.167-.078h0a8.7,8.7,0,1,1,1.168.078Zm0,0" transform="translate(0 -0.388)"/><path class="d" d="M126.044,212.523a2.211,2.211,0,1,0,2.281,2.209A2.249,2.249,0,0,0,126.044,212.523Zm0,2.993a.787.787,0,1,1,.855-.784A.824.824,0,0,1,126.044,215.517Zm0,0" transform="translate(-112.732 -193.619)"/><path class="d" d="M202.936,229.281h-9.5a.713.713,0,1,0,0,1.426h9.5a.713.713,0,1,0,0-1.426Zm0,0" transform="translate(-175.544 -208.883)"/><path class="d" d="M126.044,142.98a2.211,2.211,0,1,0,2.281,2.21A2.249,2.249,0,0,0,126.044,142.98Zm0,2.993a.787.787,0,1,1,.855-.783A.823.823,0,0,1,126.044,145.974Zm0,0" transform="translate(-112.732 -130.273)"/><path class="d" d="M126.044,282.063a2.21,2.21,0,1,0,2.281,2.209A2.249,2.249,0,0,0,126.044,282.063Zm0,2.992a.786.786,0,1,1,.855-.783A.823.823,0,0,1,126.044,285.055Zm0,0" transform="translate(-112.732 -256.96)"/><path class="d" d="M202.936,299.281h-9.5a.713.713,0,1,0,0,1.426h9.5a.713.713,0,1,0,0-1.426Zm0,0" transform="translate(-175.544 -272.645)"/></g></g><path class="b" d="M3.939-5.213l.845-4.238H3.536l-.7,4.238H1.4L.611-8.9H-.715l-.793,3.692h-1.43l-.7-4.238H-4.888l.845,4.238H-5.356v.832h1.482L-3.055,0h1.521l.9-4.381H.533L1.43,0H2.951L3.77-4.381H5.252v-.832ZM-.052-7.254.364-5.213H-.468ZM1.573-4.381H2.7L2.21-1.4Zm-4.381,0h1.131L-2.314-1.4Z" transform="translate(199 514)"/></g></svg>