<svg xmlns="http://www.w3.org/2000/svg" width="29.375" height="27.797" viewBox="0 0 29.375 27.797"><defs><style>.a{fill:#0165fa;}.b{fill:#fff;}.c{fill:#495d85;}.d{fill:#e9eef0;}.e{fill:#083863;}</style></defs><path class="a" d="M16.689,210.293l3.442,5.962-4.969,2.869a3.442,3.442,0,1,1-3.442-5.962Zm0,0" transform="translate(-9.425 -198.228)"/><path class="b" d="M260.614,44.488a1.147,1.147,0,0,1-.966,1.721l-.645.127-.014-.073L251.6,33.47l-.048-.038.413-.526a1.147,1.147,0,0,1,1.973.024C265.4,52.782,250.942,27.735,260.614,44.488Zm0,0" transform="translate(-237.122 -30.499)"/><path class="c" d="M106.141,339.681a1.721,1.721,0,0,1-2.981,1.721L100,335.936l2.981-1.721Zm0,0" transform="translate(-94.266 -315.04)"/><path class="d" d="M335.7,108.934l1.147,1.987-1.414,2.141-2.295-3.975Zm0,0" transform="translate(-314.024 -102.684)"/><path class="a" d="M141.208,63.944l.014.073-11.174,2.192-3.442-5.962,7.169-9.133.048.038Zm0,0" transform="translate(-119.342 -48.181)"/><path class="e" d="M5.507,42.717l2.889,5a2.295,2.295,0,1,0,3.975-2.295L10.65,42.445l1.491-.861a.574.574,0,0,0,.21-.784L11.6,39.509l10.989-2.156a1.721,1.721,0,0,0,1.4-2.579l-1.907-3.3L23.3,29.626a.574.574,0,0,0,.018-.6l-1.147-1.987a.575.575,0,0,0-.531-.286l-2.207.132-2.117-3.666a1.706,1.706,0,0,0-1.469-.86h-.022a1.706,1.706,0,0,0-1.449.794L6.881,32.7,2.008,35.51a4.016,4.016,0,0,0,3.5,7.207ZM11.378,46A1.147,1.147,0,0,1,9.39,47.148L6.521,42.179l1.987-1.147Zm-1.3-4.549L9.5,40.458l.994-.574.574.994ZM21.355,27.917l.793,1.373-.707,1.071-1.367-2.367Zm-6.019-4.138a.574.574,0,0,1,.987.011L23,35.348a.574.574,0,0,1-.483.86,2.107,2.107,0,0,0-.315.053L15.139,24.035C15.287,23.845,15.306,23.826,15.335,23.778Zm-.96,1.23L21.007,36.5,11,38.458,7.955,33.187ZM1.532,40.422A2.867,2.867,0,0,1,2.582,36.5l4.472-2.582L9.923,38.89,5.451,41.472A2.872,2.872,0,0,1,1.532,40.422Zm0,0" transform="translate(0 -21.073)"/><path class="e" d="M439.767,42.554l-3.2,1.779a.574.574,0,0,0,.558,1l3.2-1.779a.574.574,0,0,0-.558-1Zm0,0" transform="translate(-411.244 -40.044)"/><path class="e" d="M443,137.235l-2.217-.594a.574.574,0,1,0-.3,1.108l2.217.594a.574.574,0,1,0,.3-1.108Zm0,0" transform="translate(-414.815 -128.783)"/><path class="e" d="M384.107.426l-.595,2.217a.574.574,0,0,0,1.108.3l.594-2.217a.574.574,0,1,0-1.108-.3Zm0,0" transform="translate(-361.49 0)"/></svg>