<svg xmlns="http://www.w3.org/2000/svg" width="108.748" height="118.175" viewBox="0 0 108.748 118.175"><defs><style>.a{opacity:0.272;}.b,.l{fill:#f0f0f0;}.b{opacity:0.219;}.c{fill:#27debf;}.d{fill:#263238;}.e{fill:#37474f;}.f{fill:#054ec4;}.g{fill:#0363f7;}.h{fill:#455a64;}.i{fill:#0662f5;}.j,.t{opacity:0.2;}.k,.o{fill:#fff;}.k{opacity:0.3;}.m{fill:#0b60f1;}.n{fill:#ffa8a7;}.p{fill:#f28f8f;}.q{fill:#105eee;}.r{opacity:0.1;}.s{fill:#3d4ccd;}.u{fill:#e0e0e0;}</style></defs><g transform="translate(-148.845 -170.454)"><g class="a" transform="translate(158.408 231.399)"><path class="b" d="M164.908,306.129c7.659,4.412,25.62,1.2,40.118-7.167l39.813-22.986c14.5-8.37,20.028-18.724,12.351-23.126s-25.652-1.185-40.15,7.185l-39.748,22.949C162.794,291.355,157.25,301.717,164.908,306.129Z" transform="translate(-161.465 -250.878)"/></g><g transform="translate(148.845 170.454)"><path class="c" d="M172.234,315.665l9.234-5.332-3.078-1.777-9.235,5.331Z" transform="translate(-153.764 -203.904)"/><path class="c" d="M196.606,301.593l9.234-5.332-3.078-1.777-9.235,5.331Z" transform="translate(-159.668 -200.495)"/><path class="d" d="M188.138,299.431a15.414,15.414,0,0,1-6.979,12.094c-2.054,1.19-3.9,1.228-5.176.333a.007.007,0,0,0-.008-.008,4.6,4.6,0,0,1-1.75-3.357,8.46,8.46,0,0,0,.781-.4A15.415,15.415,0,0,0,181.985,296a6.915,6.915,0,0,0-.061-.993,4.712,4.712,0,0,1,3.819-.273C187.214,295.362,188.138,297.006,188.138,299.431Z" transform="translate(-154.992 -200.486)"/><path class="e" d="M187.539,288.7a1.136,1.136,0,0,1-.129-.076c-1.94-1.031-4.577-.841-7.479.841-5.949,3.433-10.776,11.784-10.776,18.657,0,3.455,1.22,5.873,3.19,6.994,1.948,1.106,4.63.932,7.585-.773,5.949-3.433,10.768-11.791,10.768-18.664C190.7,292.237,189.494,289.82,187.539,288.7Zm-7.608,21.264c-2.061,1.19-3.91,1.228-5.183.326-1.122-.781-1.8-2.281-1.8-4.357a15.446,15.446,0,0,1,6.987-12.094,5.155,5.155,0,0,1,4.585-.667c1.47.629,2.395,2.273,2.395,4.7A15.415,15.415,0,0,1,179.931,309.962Z" transform="translate(-153.764 -198.922)"/><path class="f" d="M186.072,294.9a.767.767,0,0,1-.083-.049c-1.257-.668-2.967-.545-4.848.546a15.43,15.43,0,0,0-6.985,12.094c0,2.24.79,3.807,2.068,4.534,1.263.718,3,.6,4.917-.5a15.436,15.436,0,0,0,6.981-12.1C188.121,297.2,187.34,295.63,186.072,294.9Zm-4.931,15.04c-1.657.956-3.143.987-4.167.261a4.069,4.069,0,0,1-1.45-3.5,12.418,12.418,0,0,1,5.617-9.723,4.143,4.143,0,0,1,3.685-.536c1.182.505,1.926,1.827,1.926,3.777A12.393,12.393,0,0,1,181.141,309.943Z" transform="translate(-154.975 -200.485)"/><path class="c" d="M220.979,287.522l9.234-5.332-3.078-1.777-9.235,5.331Z" transform="translate(-165.571 -197.087)"/><path class="c" d="M245.351,273.451l9.234-5.332-3.078-1.777-9.235,5.331Z" transform="translate(-171.474 -193.679)"/><path class="c" d="M269.724,259.38l9.234-5.332-3.078-1.777-9.235,5.331Z" transform="translate(-177.377 -190.271)"/><path class="g" d="M209.787,196.13c.607-.52,1.218-.3,1.365.48a2.768,2.768,0,0,1-.831,2.364c-.606.521-1.218.305-1.365-.48A2.772,2.772,0,0,1,209.787,196.13Z" transform="translate(-163.397 -176.605)"/><path class="g" d="M217.035,199.5l-6.18-3.567L209.5,199.2l6.194,3.575Z" transform="translate(-163.537 -176.626)"/><path class="c" d="M217.911,200.821c.607-.52,1.218-.305,1.365.48a2.768,2.768,0,0,1-.831,2.364c-.606.52-1.218.305-1.365-.48A2.77,2.77,0,0,1,217.911,200.821Z" transform="translate(-165.364 -177.741)"/><path class="h" d="M273.951,238.033c.008.152.023.288.023.439,0,.3-.008.613-.03.925a5.154,5.154,0,0,0-4.585.666,15.449,15.449,0,0,0-6.987,12.094c0,2.076.682,3.577,1.8,4.357a10.979,10.979,0,0,1-.977.621c-.121.068-.235.121-.356.182l-1.068,4.025-6.184-3.449c-1.955-1.129-3.16-3.539-3.16-6.978,0-6.874,4.819-15.224,10.768-18.664,2.94-1.7,5.6-1.873,7.548-.788v-.008l6.093,3.4a1.029,1.029,0,0,0,.129.075Z" transform="translate(-173.934 -185.066)"/><path class="e" d="M278.934,236.022a1.05,1.05,0,0,1-.129-.075c-1.94-1.031-4.577-.842-7.479.841-5.949,3.432-10.776,11.783-10.776,18.656,0,3.456,1.22,5.873,3.19,7,1.948,1.106,4.63.932,7.585-.773,5.949-3.434,10.768-11.791,10.768-18.665C282.094,239.561,280.889,237.145,278.934,236.022Zm-7.608,21.264c-2.061,1.19-3.91,1.228-5.183.326-1.121-.78-1.8-2.281-1.8-4.357a15.448,15.448,0,0,1,6.987-12.094,5.154,5.154,0,0,1,4.585-.666c1.47.629,2.395,2.273,2.395,4.7A15.414,15.414,0,0,1,271.326,257.286Z" transform="translate(-175.901 -186.164)"/><path class="d" d="M279.533,246.756a15.414,15.414,0,0,1-6.979,12.094c-2.054,1.19-3.9,1.228-5.176.333a.007.007,0,0,0-.008-.008,4.6,4.6,0,0,1-1.751-3.357,8.636,8.636,0,0,0,.781-.4,15.416,15.416,0,0,0,6.979-12.1,6.906,6.906,0,0,0-.061-.992,4.712,4.712,0,0,1,3.819-.273C278.609,242.687,279.533,244.331,279.533,246.756Z" transform="translate(-177.129 -187.727)"/><path class="f" d="M277.468,242.231a.816.816,0,0,1-.083-.049c-1.258-.668-2.968-.546-4.849.545a15.435,15.435,0,0,0-6.985,12.1c0,2.24.791,3.807,2.068,4.534s3,.6,4.917-.5a15.436,15.436,0,0,0,6.981-12.1C279.516,244.525,278.735,242.958,277.468,242.231Zm-4.932,15.039c-1.657.956-3.143.987-4.167.262a4.072,4.072,0,0,1-1.45-3.5,12.416,12.416,0,0,1,5.617-9.722,4.144,4.144,0,0,1,3.686-.536c1.182.506,1.925,1.828,1.925,3.778A12.391,12.391,0,0,1,272.536,257.27Z" transform="translate(-177.112 -187.728)"/><path class="f" d="M266.643,245.376l17.432-10.065c2.027-1.17-4.585-8.033-9.435-8.489a18.876,18.876,0,0,0-8,.782s3.718,4.768,3.078,7.473S266.643,245.376,266.643,245.376Z" transform="translate(-177.377 -184.082)"/><path class="i" d="M221.857,213.814s25.263,12.741,26.355,13.505.034,9.659-1.73,14.93-4.406,13.369-5.472,15.681-2.465,3.119-5.026,4.6-18.2,10.514-18.2,10.514l-24.608,2.974-9.772-5.332,2.54-15.995s26.166-13.924,29.755-15.995S229.883,226.952,221.857,213.814Z" transform="translate(-157.216 -180.956)"/><path class="j" d="M221.857,213.814s25.263,12.741,26.355,13.505.034,9.659-1.73,14.93-4.406,13.369-5.472,15.681-2.465,3.119-5.026,4.6-18.2,10.514-18.2,10.514l-24.608,2.974-9.772-5.332,2.54-15.995s26.166-13.924,29.755-15.995S229.883,226.952,221.857,213.814Z" transform="translate(-157.216 -180.956)"/><path class="g" d="M261.971,239.258c2.259-6.112,3.975-11.176,3.682-14.588-.347-4.054-1.857-7.37-8.546-9.036s-16.051-1.643-16.051-1.643l-2.847,1.643s19.218,11.14,21.4,12.355c1.333.743,2.758,4.1.148,14.3l.447.258C260.45,242.693,261.246,241.221,261.971,239.258Z" transform="translate(-170.49 -180.999)"/><path class="k" d="M261.971,239.258c2.259-6.112,3.975-11.176,3.682-14.588-.347-4.054-1.857-7.37-8.546-9.036s-16.051-1.643-16.051-1.643l-2.847,1.643s19.218,11.14,21.4,12.355c1.333.743,2.758,4.1.148,14.3l.447.258C260.45,242.693,261.246,241.221,261.971,239.258Z" transform="translate(-170.49 -180.999)"/><path class="g" d="M242.5,217.894l3.106-1.777s-.182-10.768-4.708-13.382-19.918-.836-19.918-.836l-3.078,1.777Z" transform="translate(-165.57 -177.928)"/><path class="l" d="M236.707,206.236c-1.477.852-1.477,2.235,0,3.086a5.907,5.907,0,0,0,5.346,0c1.476-.852,1.476-2.234,0-3.086A5.908,5.908,0,0,0,236.707,206.236Z" transform="translate(-169.858 -178.966)"/><path class="l" d="M243.054,213.087a1.152,1.152,0,0,0,0,2.182,4.179,4.179,0,0,0,3.78,0,1.152,1.152,0,0,0,0-2.182A4.179,4.179,0,0,0,243.054,213.087Z" transform="translate(-171.473 -180.671)"/><path class="l" d="M227.341,204.481a1.152,1.152,0,0,0,0,2.182,4.179,4.179,0,0,0,3.78,0,1.152,1.152,0,0,0,0-2.182A4.177,4.177,0,0,0,227.341,204.481Z" transform="translate(-167.668 -178.586)"/><path class="c" d="M250.67,218.977c.607-.521,1.218-.305,1.365.48a2.769,2.769,0,0,1-.831,2.364.764.764,0,0,1-1.365-.48A2.77,2.77,0,0,1,250.67,218.977Z" transform="translate(-173.299 -182.138)"/><path class="g" d="M257.918,222.347l-6.18-3.567-1.352,3.264,6.194,3.575Z" transform="translate(-173.439 -182.159)"/><path class="c" d="M258.794,223.667c.607-.52,1.218-.305,1.365.48a2.768,2.768,0,0,1-.831,2.363c-.606.521-1.218.305-1.365-.48A2.772,2.772,0,0,1,258.794,223.667Z" transform="translate(-175.266 -183.274)"/><path d="M258.794,223.667c.607-.52,1.218-.305,1.365.48a2.768,2.768,0,0,1-.831,2.363c-.606.521-1.218.305-1.365-.48A2.772,2.772,0,0,1,258.794,223.667Z" transform="translate(-175.266 -183.274)"/><path class="h" d="M182.556,290.708c.007.152.023.288.023.439,0,.3-.008.614-.03.925a5.154,5.154,0,0,0-4.585.667,15.446,15.446,0,0,0-6.987,12.094c0,2.076.682,3.577,1.8,4.357a11.192,11.192,0,0,1-.978.621c-.121.068-.235.121-.356.182l-1.068,4.024-6.184-3.448c-1.955-1.129-3.16-3.539-3.16-6.979,0-6.873,4.82-15.224,10.768-18.665,2.94-1.7,5.6-1.872,7.548-.788v-.008l6.093,3.395a1.157,1.157,0,0,0,.129.076Z" transform="translate(-151.798 -197.825)"/><path class="g" d="M163.617,277.135,159,293.13l9.234,5.332,4.786-15.9Z" transform="translate(-151.304 -196.293)"/><path class="j" d="M163.617,277.135,159,293.13l9.234,5.332,4.786-15.9Z" transform="translate(-151.304 -196.293)"/><path class="m" d="M165.092,273.726s5.239,4.422,9.4,5.429c5.469,1.324,14.167,1.467,17.252,1.68,4.719.325,8.277.323,9.948-.277a99.484,99.484,0,0,0,9.57-5.054c3.078-1.777,4.387-8.753-4.1-10.663a85.4,85.4,0,0,0-17.451-1.777Z" transform="translate(-152.78 -192.884)"/><path class="e" d="M233.718,273.227a8.6,8.6,0,0,0-.528,2.054,4.556,4.556,0,0,0-.164,2.258,4.492,4.492,0,0,0,2.55,1.992,5.708,5.708,0,0,0,4.5-.87c1.565-.935,2.746-2.073,4.975-2.708a11.335,11.335,0,0,0,4.4-2c1.236-.993,2.886-3.735.522-4.37-2.384-.64-7.507,1.607-12.185,1.81Z" transform="translate(-169.214 -194.437)"/><path class="n" d="M233.966,270.569v3.5a2.343,2.343,0,0,0,2.986,1.355,3.127,3.127,0,0,0,2.007-2.773l.136-2.085Z" transform="translate(-169.462 -194.703)"/><path class="e" d="M240.177,241.99c.025,4.359-1.224,23.192-1.224,23.192s-1.782,2.256-5.655,0l-1.314-21.037Z" transform="translate(-168.982 -187.781)"/><path class="c" d="M211.541,260.736l12.11-6.991a3.082,3.082,0,0,0,0-5.449l-9.032-5.214a3.623,3.623,0,0,0-3.281,0l-12.112,6.993a3.081,3.081,0,0,0,0,5.447l9.031,5.214A3.623,3.623,0,0,0,211.541,260.736Z" transform="translate(-160.651 -187.95)"/><path class="o" d="M211.541,260.736l12.11-6.991a3.082,3.082,0,0,0,0-5.449l-9.032-5.214a3.623,3.623,0,0,0-3.281,0l-12.112,6.993a3.081,3.081,0,0,0,0,5.447l9.031,5.214A3.623,3.623,0,0,0,211.541,260.736Z" transform="translate(-160.651 -187.95)"/><path class="g" d="M199.533,251.968l9.034,5.214a3.63,3.63,0,0,0,3.282,0l12.11-6.991a1,1,0,0,0,0-1.894l-9.032-5.214a3.623,3.623,0,0,0-3.281,0l-12.112,6.993A1,1,0,0,0,199.533,251.968Z" transform="translate(-160.957 -187.95)"/><g transform="translate(37.819 1.872)"><g transform="translate(0 13.722)"><path class="n" d="M206.894,193.079l-1.535,6.34-6.607.4,1.427-8.787Z" transform="translate(-198.752 -191.032)"/></g><g transform="translate(1.034)"><g transform="translate(12.521 10.988)"><path class="p" d="M217.633,187.425s.718,2.689.446,2.836a4.63,4.63,0,0,1-1.441.006Z" transform="translate(-216.639 -187.425)"/></g><path class="n" d="M212.4,175.354c1.066,1.251,2.032,3.3,1.284,8.322-.82,5.5-1.836,6.135-2.657,6.669-1.062.693-5.341.325-6.546-.555a13.767,13.767,0,0,1-4.213-7.692c-.623-3.878.677-8.174,3.526-8.9A9.593,9.593,0,0,1,212.4,175.354Z" transform="translate(-200.116 -172.925)"/></g></g><g transform="translate(35.491)"><path class="h" d="M198.766,187.826c1.018,1.061,3.12,1.353,4.442,1.59s5.37.508,6.569-2.376.376-4.964,1.85-5.661a23.649,23.649,0,0,0,3.324-1.544c.385-.39.4-5.114-3.552-7.545s-9.995-3.058-13.973,1.968C194.377,178.108,195.642,184.572,198.766,187.826Z" transform="translate(-195.68 -170.454)"/><g transform="translate(7.049 8.206)"><path class="e" d="M204.983,192.083c1.02.086,4.258-.424,5.232-1.755a11.323,11.323,0,0,0,1.485-4.972,2.175,2.175,0,0,1,1.756-2.069c.971-.309,3.135-1.369,3.135-1.369l.013-.59a16.855,16.855,0,0,1,2.091-.011c.458.083.208.753-.944,1.347s-4.31,1.712-4.8,2.1-.71,2.018-1.1,3.751S210.331,192.846,204.983,192.083Z" transform="translate(-204.983 -181.283)"/></g></g><path class="p" d="M215.342,203.046l3.768-2.176c.361-1.1-.217-1.65-1.254-1.581s-.711-.932-1.338-1.216c-.828-.376-1.3-.164-1.663-.336-.468-.219-.531-.618-1.018-.665-2.166-.208-3.646,2.883-3.646,2.883Z" transform="translate(-163.704 -176.898)"/><path class="e" d="M183.055,237.582s16.74-8.3,19.664-9.656,7.495-3.287,9.926-3.285a3.961,3.961,0,0,1,3.628,3.714,28.127,28.127,0,0,1-.252,4.373,103.725,103.725,0,0,1-14.039,3.584C195,237.492,183.055,237.582,183.055,237.582Z" transform="translate(-157.131 -183.579)"/><path class="h" d="M185.451,235c.006,3.437-.323,7.011,1.109,9.529,1.384,2.434,9.185,8.346,16.495,7.116,4.775-.8,18.945-7.332,18.945-7.332s6.869-2.52,6.9-4.316c.046-2.648-.136-6.371-6.13-6.212-5.46.145-21.577,3.507-21.577,3.507Z" transform="translate(-157.704 -185.794)"/><path class="h" d="M190.136,198.553c2.589-2.71,4.34-2.933,5.581-2.605a43.716,43.716,0,0,1,8.252,3.307h0s-1,9.685,3.733,12.477v15.089a5.233,5.233,0,0,1-2.2,3.267c-1.819,1.435-5.93,2.882-10.845,2.474-5.834-.484-9.2-6.75-9.2-6.75s-.152-12.344.676-17.247C187.1,202.842,189.239,199.491,190.136,198.553Z" transform="translate(-157.71 -176.601)"/><path class="e" d="M213.623,216.107a12.123,12.123,0,0,1-3.733-5.227s.342,4.637,3.733,6.99Z" transform="translate(-163.631 -180.246)"/><path class="n" d="M249.388,224.88a5.927,5.927,0,0,0,3.784-1.169s1.32-2.564,2.939-2.348c0,0,.289-1.085-.381-1.447s-.953-.258-1.222-.63-.306-1.089-1.491-1.089c-.5,0-.427-.358-1.641-.5s-2.413,2.655-3.3,2.655Z" transform="translate(-172.88 -181.895)"/><path class="h" d="M209.768,200.349c4.16.643,5.667,1.876,7.182,3.284,1.581,1.468,10.793,10.709,10.793,10.709l11.228,1.614a3.774,3.774,0,0,1,1.243,1.849,3.327,3.327,0,0,1-.385,3.1s-11.138.662-13.327.25-13.036-7.622-13.036-7.622A9.688,9.688,0,0,1,209.68,207C208.972,202.425,209.768,200.349,209.768,200.349Z" transform="translate(-163.509 -177.695)"/><g transform="translate(0 39.967)"><path class="q" d="M185.12,245.914l-17.232,21.006a4.8,4.8,0,0,1-.576.038,4.124,4.124,0,0,1-1.963-.462c-.008-.008-14.534-8.4-14.534-8.4l-.985-.568c-.544-.315-.985-1.587-.985-2.842V251.15A20.711,20.711,0,0,1,159.2,233.213l17.353-10.018,18.467,10.662Z" transform="translate(-148.845 -223.195)"/></g><g class="r" transform="translate(0 39.967)"><path d="M185.12,245.914l-17.232,21.006a4.8,4.8,0,0,1-.576.038,4.124,4.124,0,0,1-1.963-.462c-.008-.008-14.534-8.4-14.534-8.4l-.985-.568c-.544-.315-.985-1.587-.985-2.842V251.15A20.711,20.711,0,0,1,159.2,233.213l17.353-10.018,18.467,10.662Z" transform="translate(-148.845 -223.195)"/></g><g transform="translate(4.52 39.967)"><path class="g" d="M180.631,253.153l15.83-19.3-18.469-10.663-17.348,10.016a20.668,20.668,0,0,0-5.834,5.035Z" transform="translate(-154.81 -223.195)"/></g><g transform="translate(18.467 50.629)"><path class="s" d="M200.92,252.762c0,1.255-.441,2.527-.985,2.842l-.985.568L175.185,269.9a3.8,3.8,0,0,1-1.394.432,4.775,4.775,0,0,1-.576.038V265.22a20.7,20.7,0,0,1,10.359-17.937l1.963-1.129,15.383-8.889Z" transform="translate(-173.215 -237.265)"/><g class="t"><path class="s" d="M200.92,252.762c0,1.255-.441,2.527-.985,2.842l-.985.568L175.185,269.9a3.8,3.8,0,0,1-1.394.432,4.775,4.775,0,0,1-.576.038V265.22a20.7,20.7,0,0,1,10.359-17.937l1.963-1.129,15.383-8.889Z" transform="translate(-173.215 -237.265)"/></g></g><path class="u" d="M216.422,289.547l9.3-.032,13.306-7.689h0l-13.038,9.427-9.812.136Z" transform="translate(-165.154 -197.429)"/><path class="u" d="M185.861,305.211s16.762-6.32,18.171-7.063a36.134,36.134,0,0,0,4.744-3.46,2.017,2.017,0,0,0-.249-2.706s-6.831-.31-8.573.223c-.978.3-16.75,5.359-16.75,5.359Z" transform="translate(-157.167 -199.868)"/><path class="h" d="M184.7,299.94c-1.387-1.189-2.783-.7-3.12,1.1a6.331,6.331,0,0,0,1.9,5.4c1.387,1.189,2.783.7,3.12-1.1A6.331,6.331,0,0,0,184.7,299.94Z" transform="translate(-156.756 -201.66)"/></g></g></svg>