<svg xmlns="http://www.w3.org/2000/svg" width="19.994" height="26.89" viewBox="0 0 19.994 26.89"><defs><style>.a{fill:#d71718;}.b{fill:#595857;}</style></defs><g transform="translate(-31.596 -148.777)"><path class="a" d="M508.125-.4a5.121,5.121,0,0,1-1.239,3.75,4.913,4.913,0,0,1-3.63,1.239,4.33,4.33,0,0,1-3.492-1.334A5.325,5.325,0,0,1,498.58-.4,2.552,2.552,0,0,0,496.052-2.9,2.686,2.686,0,0,0,493.331-.4a11.17,11.17,0,0,0,.55,3.369,7.914,7.914,0,0,0,1.7,3.191,7.918,7.918,0,0,0,3.079,2.334,10.194,10.194,0,0,0,4.595.9,10.965,10.965,0,0,0,4.917-1,8.523,8.523,0,0,0,3.033-2.477,9.436,9.436,0,0,0,1.608-3.191,13.781,13.781,0,0,0,.46-3.131A2.314,2.314,0,0,0,510.879-2.9,2.642,2.642,0,0,0,508.125-.4Z" transform="translate(-461.735 166.271)"/><ellipse class="b" cx="2.056" cy="2.131" rx="2.056" ry="2.131" transform="translate(39.511 157.909)"/><path class="b" d="M496.032-49.61a2.039,2.039,0,0,0-2.173,1.871h-.018v8.046h.02a2.046,2.046,0,0,0,2.171,1.831,2.046,2.046,0,0,0,2.171-1.831h0v-8.046A2.039,2.039,0,0,0,496.032-49.61Z" transform="translate(-462.086 198.455)"/><path class="b" d="M545.786-49.829a2.039,2.039,0,0,0-2.173,1.871h-.018v8.046h.02a2.046,2.046,0,0,0,2.171,1.831,2.046,2.046,0,0,0,2.171-1.831h0v-8.046A2.039,2.039,0,0,0,545.786-49.829Z" transform="translate(-496.369 198.606)"/></g></svg>