<svg xmlns="http://www.w3.org/2000/svg" width="203.93" height="40.277" viewBox="0 0 203.93 40.277"><defs><style>.a{fill:#fff;}</style></defs><g transform="translate(-316.668 -192.029)"><path class="a" d="M384.722,219.5l-6.595-16.633L371.534,219.5q-1.176,2.9-3.823,1.722-2.141-.924-1.091-3.655l7.9-19.4h-5.46a2.394,2.394,0,0,1-.042-4.788h17.807a2.395,2.395,0,1,1-.042,4.788H381.7l7.938,19.4q1.008,2.731-1.092,3.655Q385.9,222.4,384.722,219.5Zm17.3-9.744h-2.6a1.039,1.039,0,0,0-1.175,1.176V227.35a2.751,2.751,0,1,1-5.5,0V194.843q0-2.812,2.772-2.814,2.729,0,2.73,2.814v8.442q0,1.134,1.175,1.134h2.6a2.667,2.667,0,0,1,0,5.334Z"/><path class="a" d="M411.811,208.451a2.7,2.7,0,0,1-1.953-.8,2.6,2.6,0,0,1-.819-1.931V195.85a2.619,2.619,0,0,1,.819-1.91,2.662,2.662,0,0,1,1.953-.819h24.36a2.8,2.8,0,0,1,2.73,2.729v9.871a2.6,2.6,0,0,1-.819,1.931,2.654,2.654,0,0,1-1.911.8h-9.408v1.638a1.039,1.039,0,0,0,1.176,1.175h11.046a2.374,2.374,0,0,1,0,4.747H431.8a10.208,10.208,0,0,1,1.974,2.772,8.925,8.925,0,0,1,0,7.56,9.552,9.552,0,0,1-2.31,3.066,11.355,11.355,0,0,1-3.381,2.1,11.135,11.135,0,0,1-8.274,0,11.355,11.355,0,0,1-3.381-2.1,9.292,9.292,0,0,1-2.289-3.066,8.868,8.868,0,0,1-.819-3.781,8.679,8.679,0,0,1,.84-3.779,9.5,9.5,0,0,1,1.932-2.772h-7.14a2.374,2.374,0,0,1,0-4.747h11.088q1.134,0,1.134-1.175v-1.638Zm3.57-10.71a.742.742,0,0,0-.84.84v4.494q0,.8.84.8H432.6a.705.705,0,0,0,.8-.8v-4.494q0-.84-.8-.84Zm14.028,24.653a4.991,4.991,0,0,0-.441-2.1,6.316,6.316,0,0,0-1.155-1.723,5.771,5.771,0,0,0-1.743-1.2,5.041,5.041,0,0,0-2.079-.442,5.14,5.14,0,0,0-2.121.442,5.264,5.264,0,0,0-1.7,1.2,5.875,5.875,0,0,0-1.2,1.723,5.221,5.221,0,0,0,0,4.2,5.857,5.857,0,0,0,1.2,1.722,5.267,5.267,0,0,0,1.7,1.2,5.139,5.139,0,0,0,2.121.44,5.039,5.039,0,0,0,2.079-.44,5.774,5.774,0,0,0,1.743-1.2,6.3,6.3,0,0,0,1.155-1.722A5,5,0,0,0,429.409,222.394Z"/><path class="a" d="M463.1,216.724h.672a2.332,2.332,0,1,1,0,4.663h-16.59q-2.4,0-2.4-2.31a2.1,2.1,0,0,1,2.4-2.353h.42q.8,0,.8-.839V198.917q0-.84-.8-.84h-.336a2.352,2.352,0,1,1,0-4.7h16a2.352,2.352,0,0,1,0,4.7H463.1a.743.743,0,0,0-.841.84v16.968A.742.742,0,0,0,463.1,216.724Zm-5.922-.839V198.917q0-.84-.8-.84H454.4a.742.742,0,0,0-.84.84v16.968a.742.742,0,0,0,.84.839h1.974Q457.177,216.724,457.178,215.885Zm10.2-11.466a.78.78,0,0,0,.883-.882V195.1a2.625,2.625,0,1,1,5.25,0v31.542a2.625,2.625,0,1,1-5.25,0v-16.38a.743.743,0,0,0-.841-.84h-1.512q-2.562,0-2.561-2.479a2.245,2.245,0,0,1,2.561-2.519Zm14.238-9.66v32.675a2.667,2.667,0,1,1-5.334,0V194.759q0-2.73,2.647-2.73A2.394,2.394,0,0,1,481.621,194.759Z"/><path class="a" d="M509.678,204.755a11.148,11.148,0,0,1-.862,4.388,9.984,9.984,0,0,1-2.457,3.507,11.012,11.012,0,0,1-3.632,2.457,11.5,11.5,0,0,1-4.557.9,11.289,11.289,0,0,1-4.474-.9,11.484,11.484,0,0,1-3.674-2.457,10.24,10.24,0,0,1-2.416-3.507,11.508,11.508,0,0,1,0-8.735,10.707,10.707,0,0,1,2.416-3.549A11.517,11.517,0,0,1,493.7,194.4a11.306,11.306,0,0,1,4.474-.9,11.514,11.514,0,0,1,4.557.9,11.043,11.043,0,0,1,3.632,2.457,10.428,10.428,0,0,1,2.457,3.549A11.05,11.05,0,0,1,509.678,204.755Zm-5.46,0a6.334,6.334,0,0,0-.5-2.521,6.768,6.768,0,0,0-1.3-2.015,5.814,5.814,0,0,0-4.241-1.764,5.735,5.735,0,0,0-2.205.44,5.981,5.981,0,0,0-1.953,1.324,6.437,6.437,0,0,0-1.281,2.015,6.8,6.8,0,0,0,0,5.04,6.435,6.435,0,0,0,1.281,2.017,6.257,6.257,0,0,0,1.953,1.344,5.509,5.509,0,0,0,2.205.461,5.575,5.575,0,0,0,2.268-.461,6.344,6.344,0,0,0,1.931-1.344,7.1,7.1,0,0,0,1.323-2.017A6.1,6.1,0,0,0,504.218,204.755Zm10.836,22.637V194.843q0-2.812,2.771-2.814t2.773,2.814v32.549a2.772,2.772,0,0,1-5.544,0Z"/><path class="a" d="M349.119,226.624a23.728,23.728,0,0,1-31.437-10.659l-1.014.505c5.562,12.212,20.942,17.278,33.019,11.3a24.7,24.7,0,0,0,11.1-33.141l-.827.413C365.622,206.487,360.562,220.961,349.119,226.624Z"/><path class="a" d="M341.464,204.835l15.359-7.6a1.521,1.521,0,0,1,2.1.825,21.456,21.456,0,0,1,.822,12.224,1.525,1.525,0,0,1-1.976,1.114l-16.233-5.485A.584.584,0,0,1,341.464,204.835Zm-1,2.972a.584.584,0,0,1,.711-.812L357.4,212.48a1.525,1.525,0,0,1,.894,2.084,21.452,21.452,0,0,1-8.068,9.221,1.521,1.521,0,0,1-2.17-.618Zm-1.024.507,7.6,15.36a1.52,1.52,0,0,1-.825,2.1,21.456,21.456,0,0,1-12.224.822,1.526,1.526,0,0,1-1.114-1.976l5.485-16.233A.585.585,0,0,1,339.435,208.314Zm-9.73,16.835a21.465,21.465,0,0,1-9.221-8.068,1.521,1.521,0,0,1,.618-2.17l15.36-7.6a.584.584,0,0,1,.812.71l-5.485,16.234A1.526,1.526,0,0,1,329.7,225.149Z"/><path class="a" d="M331.789,224.254l5.485-16.234a.584.584,0,0,0-.812-.71l-15.36,7.6a1.521,1.521,0,0,0-.618,2.17,21.465,21.465,0,0,0,9.221,8.068A1.526,1.526,0,0,0,331.789,224.254Z"/><path class="a" d="M333.986,226.6a21.456,21.456,0,0,0,12.224-.822,1.52,1.52,0,0,0,.825-2.1l-7.6-15.36a.585.585,0,0,0-1.078.073l-5.485,16.233A1.526,1.526,0,0,0,333.986,226.6Z"/><path class="a" d="M350.23,223.785a21.452,21.452,0,0,0,8.068-9.221,1.525,1.525,0,0,0-.894-2.084l-16.234-5.485a.584.584,0,0,0-.711.812l7.6,15.36A1.521,1.521,0,0,0,350.23,223.785Z"/><path class="a" d="M357.769,211.4a1.525,1.525,0,0,0,1.976-1.114,21.456,21.456,0,0,0-.822-12.224,1.521,1.521,0,0,0-2.1-.825l-15.359,7.6a.584.584,0,0,0,.072,1.077Z"/></g></svg>