<svg xmlns="http://www.w3.org/2000/svg" xmlns:xlink="http://www.w3.org/1999/xlink" width="214.611" height="41.293" viewBox="0 0 214.611 41.293"><defs><style>.a{fill:url(#a);}.b{fill:#e20b55;}.c{fill:#2955dc;}.d{fill:#2747d1;}.e{fill:#80329c;}.f{fill:#b51c74;}.g{fill:#c4166a;}.h{fill:#4f46c0;}.i{fill:#0165fa;}.j{fill:#922b8f;}</style><linearGradient id="a" x1="0.844" y1="0.316" x2="0.022" y2="0.647" gradientUnits="objectBoundingBox"><stop offset="0" stop-color="#880024"/><stop offset="1" stop-color="#0065fa"/></linearGradient></defs><g transform="translate(-81.141 -155.707)"><path class="a" d="M8.641-5.025A13.485,13.485,0,0,0,14.085-3.9a13.461,13.461,0,0,0,5.444-1.089L14.085-8.607a9.8,9.8,0,0,1-3.653-.7,9.062,9.062,0,0,1-2.95-2.037A9.062,9.062,0,0,1,5.444-14.3a9.175,9.175,0,0,1-.738-3.653A9.175,9.175,0,0,1,5.444-21.6a9.534,9.534,0,0,1,2-2.95,8.849,8.849,0,0,1,2.986-2.037,9.666,9.666,0,0,1,3.653-.7,9.1,9.1,0,0,1,6.6,2.7l3.337-3.267a14.572,14.572,0,0,0-4.5-3.056A13.461,13.461,0,0,0,14.085-32a13.485,13.485,0,0,0-5.444,1.124,14.071,14.071,0,0,0-4.5,3.021A14.351,14.351,0,0,0,1.124-23.43,13.777,13.777,0,0,0,0-17.95a13.566,13.566,0,0,0,1.124,5.409,14.669,14.669,0,0,0,3.021,4.5A14.669,14.669,0,0,0,8.641-5.025Zm23.077-8.219L35.862-21.5l4.11,8.254H45.24L35.862-32,21.812-3.9h5.2L29.4-8.607ZM47.558-8.572h-5.2L44.678-3.9h5.234ZM56.3-8.607,51.633-3.9H70.354V-8.607ZM51.633-32v21.742L56.3-14.965V-32ZM77.941-8.607,73.269-3.9H91.991V-8.607ZM73.269-32v21.742l4.672-4.707V-32Zm42.29,2.74a9.019,9.019,0,0,0-6.6-2.74H94.906l4.672,4.707h9.378a4.46,4.46,0,0,1,3.267,1.37,4.438,4.438,0,0,1,1.4,3.3,4.514,4.514,0,0,1-1.4,3.3,4.46,4.46,0,0,1-3.267,1.37H94.906V-3.9h4.672v-9.343h9.378a9.019,9.019,0,0,0,6.6-2.74,8.962,8.962,0,0,0,2.74-6.639A9.155,9.155,0,0,0,115.559-29.26Zm8.676,16.017L128.38-21.5l4.11,8.254h5.269L128.38-32,114.33-3.9h5.2l2.388-4.707Zm15.841,4.672h-5.2L137.2-3.9h5.234ZM158.2-17.95,169.159-32h-5.936l-8.008,10.256L147.241-32h-6.006l11.029,14.05L141.235-3.9h6.006l7.973-10.256v.035Zm-2.986,3.793L147.241-3.9l7.973-10.221Z" transform="translate(126.594 194.304)"/><path class="b" d="M2.053,2.257,10.295,0,8.174,8.377,0,10.39Z" transform="translate(99.057 164.899) rotate(45)"/><path class="c" d="M329.886,1656.058l0,8.382,17.948-10.408v-8.652Z" transform="translate(-230.972 -1479.464)"/><path class="d" d="M329.943,1628.3l14.037,8.169,3.891-2.33-17.928-10.2Z" transform="translate(-231.004 -1468.229)"/><path class="e" d="M310.385,1697.023v-4.232l-14.269-8.171-3.55,2.455Z" transform="translate(-211.421 -1500.023)"/><path class="f" d="M347.881,1686.633l-17.9,10.316v-4.233l14.185-8.236Z" transform="translate(-231.022 -1499.949)"/><path class="g" d="M345.623,1669.58l10.453,6.054.006-12.146Z" transform="translate(-239.219 -1488.952)"/><path class="h" d="M296.094,1636.543l14.284-8.226v-4.369l-17.8,10.21Z" transform="translate(-211.426 -1468.236)"/><path class="i" d="M314.719,1667.014l7.22,4.358v-8.367l-7.22-4.366Z" transform="translate(-223.028 -1486.411)"/><path class="j" d="M292.558,1645.38l3.522,2.38.029,16.307-3.545,2.453Z" transform="translate(-211.417 -1479.464)"/></g></svg>