<svg xmlns="http://www.w3.org/2000/svg" width="134.566" height="25.891" viewBox="0 0 134.566 25.891"><defs><style>.a{fill:#fff;}</style></defs><g transform="translate(-81.141 -155.707)"><g transform="translate(81.141 155.707)"><path class="a" d="M5.418-15.086a8.455,8.455,0,0,0,3.414.7,8.44,8.44,0,0,0,3.414-.683L8.832-17.332a6.145,6.145,0,0,1-2.29-.44,5.682,5.682,0,0,1-1.85-1.277A5.682,5.682,0,0,1,3.414-20.9a5.753,5.753,0,0,1-.462-2.29,5.753,5.753,0,0,1,.462-2.29,5.978,5.978,0,0,1,1.255-1.85,5.548,5.548,0,0,1,1.872-1.277,6.061,6.061,0,0,1,2.29-.44,5.705,5.705,0,0,1,4.14,1.7L15.064-29.4a9.137,9.137,0,0,0-2.819-1.916A8.44,8.44,0,0,0,8.832-32a8.455,8.455,0,0,0-3.414.7A8.823,8.823,0,0,0,2.6-29.4,9,9,0,0,0,.7-26.626,8.638,8.638,0,0,0,0-23.191,8.506,8.506,0,0,0,.7-19.8,9.2,9.2,0,0,0,2.6-16.98,9.2,9.2,0,0,0,5.418-15.086Zm14.47-5.154,2.6-5.176,2.577,5.176h3.3L22.486-32l-8.81,17.619h3.26l1.5-2.951ZM29.82-17.31h-3.26l1.454,2.929H31.3Zm5.484-.022-2.929,2.951H44.114v-2.951ZM32.375-32v13.633L35.3-21.318V-32Zm16.5,14.668-2.929,2.951H57.68v-2.951ZM45.942-32v13.633l2.929-2.951V-32Zm26.517,1.718A5.655,5.655,0,0,0,68.318-32h-8.81l2.929,2.951h5.88a2.8,2.8,0,0,1,2.048.859,2.782,2.782,0,0,1,.881,2.07,2.83,2.83,0,0,1-.881,2.07,2.8,2.8,0,0,1-2.048.859h-8.81v8.81h2.929v-5.858h5.88a5.655,5.655,0,0,0,4.14-1.718,5.619,5.619,0,0,0,1.718-4.162A5.74,5.74,0,0,0,72.458-30.282ZM77.9-20.239l2.6-5.176,2.577,5.176h3.3L80.5-32l-8.81,17.619h3.26l1.5-2.951Zm9.933,2.929h-3.26l1.454,2.929h3.282ZM99.2-23.191,106.066-32h-3.722l-5.021,6.431-5-6.431H88.558l6.915,8.81-6.915,8.81h3.766l5-6.431v.022Zm-1.872,2.379-5,6.431,5-6.409Z" transform="translate(28.5 36.136)"/><path class="a" d="M1.288,1.415,6.455,0,5.125,5.253,0,6.515Z" transform="translate(11.233 5.763) rotate(45)"/><path class="a" d="M329.885,1652.075l0,5.256,11.254-6.526v-5.425Z" transform="translate(-318.741 -1638.979)"/><path class="a" d="M329.943,1626.672l8.8,5.122,2.44-1.461-11.241-6.4Z" transform="translate(-318.784 -1623.937)"/><path class="a" d="M303.739,1692.4v-2.654l-8.947-5.123-2.226,1.539Z" transform="translate(-292.564 -1666.506)"/><path class="a" d="M341.2,1685.829l-11.225,6.469v-2.654l8.894-5.164Z" transform="translate(-318.808 -1666.407)"/><path class="a" d="M345.623,1667.308l6.554,3.8,0-7.615Z" transform="translate(-329.783 -1651.682)"/><path class="a" d="M294.781,1631.846l8.957-5.158v-2.739l-11.163,6.4Z" transform="translate(-292.57 -1623.945)"/><path class="a" d="M314.719,1663.89l4.527,2.733v-5.246l-4.527-2.738Z" transform="translate(-308.104 -1648.28)"/><path class="a" d="M292.558,1645.38l2.208,1.493.018,10.224-2.223,1.538Z" transform="translate(-292.558 -1638.979)"/></g></g></svg>