<svg xmlns="http://www.w3.org/2000/svg" width="182.629" height="33.782" viewBox="0 0 182.629 33.782"><defs><style>.a{fill:#fff;}.b{fill:#e98f37;}</style></defs><g transform="translate(-74.708 -148.163)"><g transform="translate(74.708 148.163)"><path class="a" d="M-53.361-31.1V-48.281H-55.42v15.768a1.293,1.293,0,0,1-.43,1.06,1.788,1.788,0,0,1-1.168.353H-59.2v-9.436a15.508,15.508,0,0,1-3.7,1.414,16.482,16.482,0,0,1-3.857.461,11.717,11.717,0,0,1-3.289-.4,5.148,5.148,0,0,1-2.2-1.229,4.726,4.726,0,0,1-1.214-2.075,10.516,10.516,0,0,1-.369-2.966V-58.516h2.182a1.787,1.787,0,0,1,1.168.353,1.293,1.293,0,0,1,.43,1.06v11.649a7.409,7.409,0,0,0,.184,1.8,2.443,2.443,0,0,0,.615,1.153,2.441,2.441,0,0,0,1.153.615,7.552,7.552,0,0,0,1.829.185,15.042,15.042,0,0,0,3.658-.461,18.562,18.562,0,0,0,3.412-1.2V-59.838h2.182a1.788,1.788,0,0,1,1.168.354,1.293,1.293,0,0,1,.43,1.06v7.039h2.059v-8.453h2.182a1.788,1.788,0,0,1,1.168.354,1.293,1.293,0,0,1,.43,1.06v25.911a1.293,1.293,0,0,1-.43,1.06,1.788,1.788,0,0,1-1.168.353Z" transform="translate(73.831 62.883)"/><path class="a" d="M275.227-26.039a16.62,16.62,0,0,1-3.657-.369,6.863,6.863,0,0,1-2.751-1.245,5.707,5.707,0,0,1-1.737-2.321,9.11,9.11,0,0,1-.615-3.565v-3.135a1.451,1.451,0,0,1,.261-.861,1.111,1.111,0,0,1,.968-.369H279.07a1.377,1.377,0,0,0,.83-.753,3.484,3.484,0,0,0,.308-1.583V-43.5a16.777,16.777,0,0,1-10.7,3.289,10.136,10.136,0,0,1-5.748-1.322,4.662,4.662,0,0,1-1.906-4.119v-3.166a1.108,1.108,0,0,1,.2-.692.9.9,0,0,1,.753-.261h7.807a1.629,1.629,0,0,0,.768-.138q.246-.138.246-.63v-1.875h-8.207a2.035,2.035,0,0,1-1.183-.277,1.252,1.252,0,0,1-.384-1.076v-1.69h11.618a1.966,1.966,0,0,1,1.506.476,2.572,2.572,0,0,1,.43,1.706v3.9q0,1.66-.876,2.152a5.432,5.432,0,0,1-2.6.492h-6.3v.953a2.97,2.97,0,0,0,.2,1.153,1.668,1.668,0,0,0,.707.784,3.82,3.82,0,0,0,1.368.446,13.935,13.935,0,0,0,2.152.138,20.687,20.687,0,0,0,3.135-.231,19.923,19.923,0,0,0,2.812-.63,14.78,14.78,0,0,0,2.367-.937,11.972,11.972,0,0,0,1.829-1.122v-8.677h2.182a1.788,1.788,0,0,1,1.168.354,1.293,1.293,0,0,1,.43,1.06v11.874a5.039,5.039,0,0,1-.215,1.552A3.521,3.521,0,0,1,283.2-38.9a2.744,2.744,0,0,1-.784.692,2.415,2.415,0,0,1-.861.307h1.2a1.111,1.111,0,0,1,.968.369,1.453,1.453,0,0,1,.261.861v3.135a9.119,9.119,0,0,1-.615,3.565,5.716,5.716,0,0,1-1.737,2.321,6.869,6.869,0,0,1-2.751,1.245A16.622,16.622,0,0,1,275.227-26.039Zm0-3.043a10.316,10.316,0,0,0,2.244-.215,3.491,3.491,0,0,0,1.552-.738,3.119,3.119,0,0,0,.892-1.4,7.055,7.055,0,0,0,.292-2.2V-34.8h-9.959v1.168a7.037,7.037,0,0,0,.292,2.2,3.114,3.114,0,0,0,.892,1.4,3.487,3.487,0,0,0,1.552.738A10.315,10.315,0,0,0,275.227-29.082Z" transform="translate(-184.184 59.514)"/><path class="a" d="M375.511-39.214a1.117,1.117,0,0,1-.861.4,1.245,1.245,0,0,1-.768-.338l-1.383-1.26a33.466,33.466,0,0,0,5.425-7.776A42.708,42.708,0,0,0,381.6-59.07l2.8.523q.83.154,1.014.615a2.338,2.338,0,0,1-.031,1.352,38.5,38.5,0,0,1-1.967,6.024,34.2,34.2,0,0,0,3.473,4.872,31.853,31.853,0,0,0,3.9,3.827l-1.23,1.414a1.142,1.142,0,0,1-.707.415,1.237,1.237,0,0,1-.922-.261,35.354,35.354,0,0,1-6.516-6.332,32.292,32.292,0,0,1-2.674,3.857A41.534,41.534,0,0,1,375.511-39.214Zm17.8,8.114V-48.281h-3.965a2.036,2.036,0,0,1-1.183-.277,1.252,1.252,0,0,1-.384-1.076v-1.752h5.533v-8.453h2.182a1.788,1.788,0,0,1,1.168.354,1.293,1.293,0,0,1,.43,1.06v25.911a1.293,1.293,0,0,1-.43,1.06,1.788,1.788,0,0,1-1.168.353Z" transform="translate(-269.226 62.883)"/><path class="a" d="M573.326-31.1V-59.838h2.182a1.789,1.789,0,0,1,1.168.354,1.294,1.294,0,0,1,.43,1.06v25.911a1.294,1.294,0,0,1-.43,1.06,1.789,1.789,0,0,1-1.168.353Z" transform="translate(-423.585 62.883)"/><path class="a" d="M600.69-37h26.556v1.445a1.789,1.789,0,0,1-.353,1.168,1.293,1.293,0,0,1-1.06.43H602.1a1.292,1.292,0,0,1-1.06-.43,1.786,1.786,0,0,1-.353-1.168Zm4.057-4.949a.952.952,0,0,1-.738.154,1.08,1.08,0,0,1-.553-.43l-1.229-1.6a29.957,29.957,0,0,0,3.35-2.859,35.707,35.707,0,0,0,3.135-3.519,33.2,33.2,0,0,0,2.689-4.027,31.4,31.4,0,0,0,2.075-4.411l2.951,1.014a1.193,1.193,0,0,1,.845.707,1.553,1.553,0,0,1-.169,1.106q-.308.646-.661,1.306t-.753,1.306a32.315,32.315,0,0,0,4.626,4.964,30.993,30.993,0,0,0,5.179,3.673l-1.014,1.752a1.237,1.237,0,0,1-.492.507.811.811,0,0,1-.738-.108,31.3,31.3,0,0,1-5.179-3.2,29.2,29.2,0,0,1-4.6-4.365,38.113,38.113,0,0,1-4.149,4.549A26.75,26.75,0,0,1,604.747-41.952Z" transform="translate(-444.617 61.964)"/><path class="a" d="M52.814-43.874A7.05,7.05,0,0,0,55.2-45.241a6.009,6.009,0,0,0,1.521-2.105,6.76,6.76,0,0,0,.538-2.736,6.761,6.761,0,0,0-.538-2.735A6.014,6.014,0,0,0,55.2-54.923a7.057,7.057,0,0,0-2.382-1.368,9.274,9.274,0,0,0-3.089-.492,9.134,9.134,0,0,0-3.073.492,7.251,7.251,0,0,0-2.382,1.368A5.882,5.882,0,0,0,42.732-52.8a6.784,6.784,0,0,0-.538,2.72,6.783,6.783,0,0,0,.538,2.72,5.882,5.882,0,0,0,1.537,2.121,7.243,7.243,0,0,0,2.382,1.368,9.117,9.117,0,0,0,3.073.492A9.256,9.256,0,0,0,52.814-43.874Zm-6.839-6.209a3.512,3.512,0,0,1,1.014-2.735,3.911,3.911,0,0,1,2.735-.922,3.84,3.84,0,0,1,2.782.938,3.615,3.615,0,0,1,.968,2.72,3.614,3.614,0,0,1-.968,2.72,3.837,3.837,0,0,1-2.782.938,3.912,3.912,0,0,1-2.735-.922A3.512,3.512,0,0,1,45.975-50.082Z" transform="translate(-15.348 60.535)"/><path class="a" d="M108.5-30.883l-3.8-3.8a.925.925,0,0,0-1.309,0,.925.925,0,0,0,0,1.309l1.6,1.6H85.86a7.235,7.235,0,0,0-4.012,1.2A27.617,27.617,0,0,1,66.737-26a9.569,9.569,0,0,1-4.1-.722,2.256,2.256,0,0,1-1.491-2.075v-.215H71.71a5.439,5.439,0,0,0,2.6-.492q.876-.492.876-2.152v-3.443c0-.051,0-.1,0-.148V-50.424a1.293,1.293,0,0,0-.43-1.06,1.788,1.788,0,0,0-1.168-.354H71.4v14.62H57.363v1.632a1.252,1.252,0,0,0,.384,1.076,2.037,2.037,0,0,0,1.184.277H71.1v1.414q0,.492-.246.63a1.63,1.63,0,0,1-.769.138H58.316a.9.9,0,0,0-.753.261,1.108,1.108,0,0,0-.2.692v2.09a5.1,5.1,0,0,0,.707,2.72,5.572,5.572,0,0,0,1.952,1.89,9.557,9.557,0,0,0,2.966,1.091,18.675,18.675,0,0,0,3.75.354A27.885,27.885,0,0,0,82.76-27.745a5.385,5.385,0,0,1,3.1-.986h19.167L103.4-27.1a.926.926,0,0,0,0,1.309.923.923,0,0,0,.656.273.922.922,0,0,0,.653-.27l3.8-3.779a.925.925,0,0,0,.273-.655A.925.925,0,0,0,108.5-30.883Z" transform="translate(-27.007 56.735)"/><path class="a" d="M166.58-28.954h11.864a2.038,2.038,0,0,0,1.183-.277,1.254,1.254,0,0,0,.384-1.076v-1.752H167.164a2.725,2.725,0,0,1-1.722-.446,2.159,2.159,0,0,1-.553-1.737v-6.24h13.247a2.038,2.038,0,0,0,1.183-.277,1.254,1.254,0,0,0,.384-1.076v-1.752H162.4a1.385,1.385,0,0,0-1,.292,1.334,1.334,0,0,0-.292.968v8.268a5,5,0,0,0,1.337,3.934A6.164,6.164,0,0,0,166.58-28.954Z" transform="translate(-106.748 50.39)"/><path class="a" d="M504.339-1.043a3.811,3.811,0,0,1-.922,2.79,3.655,3.655,0,0,1-2.7.922,3.222,3.222,0,0,1-2.6-.992,3.963,3.963,0,0,1-.88-2.72A1.9,1.9,0,0,0,495.356-2.9a2,2,0,0,0-2.025,1.856,8.309,8.309,0,0,0,.409,2.507,5.888,5.888,0,0,0,1.265,2.375A5.892,5.892,0,0,0,497.3,5.576a7.586,7.586,0,0,0,3.419.673,8.159,8.159,0,0,0,3.659-.744,6.342,6.342,0,0,0,2.257-1.843,7.021,7.021,0,0,0,1.2-2.375,10.254,10.254,0,0,0,.342-2.33A1.722,1.722,0,0,0,506.389-2.9,1.966,1.966,0,0,0,504.339-1.043Z" transform="translate(-362.099 19.121)"/><ellipse class="a" cx="1.53" cy="1.586" rx="1.53" ry="1.586" transform="translate(137.121 12.157)"/><path class="a" d="M495.471-49.61a1.517,1.517,0,0,0-1.617,1.392h-.013v5.987h.015a1.522,1.522,0,0,0,1.615,1.363,1.522,1.522,0,0,0,1.615-1.363h0v-5.987A1.517,1.517,0,0,0,495.471-49.61Z" transform="translate(-362.491 55.022)"/><path class="a" d="M545.225-49.829a1.517,1.517,0,0,0-1.617,1.392h-.013v5.987h.015a1.522,1.522,0,0,0,1.615,1.363,1.522,1.522,0,0,0,1.615-1.363h0v-5.987A1.517,1.517,0,0,0,545.225-49.829Z" transform="translate(-400.733 55.19)"/><circle class="a" cx="1.967" cy="1.967" r="1.967" transform="translate(44.405 0)"/><circle class="a" cx="1.967" cy="1.967" r="1.967" transform="translate(95.837 0)"/></g><circle class="b" cx="1.967" cy="1.967" r="1.967" transform="translate(119.113 148.163)"/></g></svg>